<?xml version="1.0" encoding="utf-8" standalone="no"?>
<!DOCTYPE svg PUBLIC "-//W3C//DTD SVG 1.1//EN"
  "http://www.w3.org/Graphics/SVG/1.1/DTD/svg11.dtd">
<svg xmlns:xlink="http://www.w3.org/1999/xlink" width="720.58125pt" height="281.634375pt" viewBox="0 0 720.58125 281.634375" xmlns="http://www.w3.org/2000/svg" version="1.1">
 <metadata>
  <rdf:RDF xmlns:dc="http://purl.org/dc/elements/1.1/" xmlns:cc="http://creativecommons.org/ns#" xmlns:rdf="http://www.w3.org/1999/02/22-rdf-syntax-ns#">
   <cc:Work>
    <dc:type rdf:resource="http://purl.org/dc/dcmitype/StillImage"/>
    <dc:date>2026-01-19T11:14:50.252195</dc:date>
    <dc:format>image/svg+xml</dc:format>
    <dc:creator>
     <cc:Agent>
      <dc:title>Matplotlib v3.10.8, https://matplotlib.org/</dc:title>
     </cc:Agent>
    </dc:creator>
   </cc:Work>
  </rdf:RDF>
 </metadata>
 <defs>
  <style type="text/css">*{stroke-linejoin: round; stroke-linecap: butt}</style>
 </defs>
 <g id="figure_1">
  <g id="patch_1">
   <path d="M 0 281.634375 
L 720.58125 281.634375 
L 720.58125 0 
L 0 0 
z
" style="fill: #ffffff"/>
  </g>
  <g id="axes_1">
   <g id="patch_2">
    <path d="M 43.78125 244.078125 
L 240.722426 244.078125 
L 240.722426 22.318125 
L 43.78125 22.318125 
z
" style="fill: #ffffff"/>
   </g>
   <g id="matplotlib.axis_1">
    <g id="xtick_1">
     <g id="line2d_1">
      <defs>
       <path id="m11a3cccdcb" d="M 0 0 
L 0 3.5 
" style="stroke: #000000; stroke-width: 0.8"/>
      </defs>
      <g>
       <use xlink:href="#m11a3cccdcb" x="52.733122" y="244.078125" style="stroke: #000000; stroke-width: 0.8"/>
      </g>
     </g>
     <g id="text_1">
      <!-- 0.0 -->
      <g transform="translate(44.781559 258.676562) scale(0.1 -0.1)">
       <defs>
        <path id="DejaVuSans-30" d="M 2034 4250 
Q 1547 4250 1301 3770 
Q 1056 3291 1056 2328 
Q 1056 1369 1301 889 
Q 1547 409 2034 409 
Q 2525 409 2770 889 
Q 3016 1369 3016 2328 
Q 3016 3291 2770 3770 
Q 2525 4250 2034 4250 
z
M 2034 4750 
Q 2819 4750 3233 4129 
Q 3647 3509 3647 2328 
Q 3647 1150 3233 529 
Q 2819 -91 2034 -91 
Q 1250 -91 836 529 
Q 422 1150 422 2328 
Q 422 3509 836 4129 
Q 1250 4750 2034 4750 
z
" transform="scale(0.015625)"/>
        <path id="DejaVuSans-2e" d="M 684 794 
L 1344 794 
L 1344 0 
L 684 0 
L 684 794 
z
" transform="scale(0.015625)"/>
       </defs>
       <use xlink:href="#DejaVuSans-30"/>
       <use xlink:href="#DejaVuSans-2e" transform="translate(63.623047 0)"/>
       <use xlink:href="#DejaVuSans-30" transform="translate(95.410156 0)"/>
      </g>
     </g>
    </g>
    <g id="xtick_2">
     <g id="line2d_2">
      <g>
       <use xlink:href="#m11a3cccdcb" x="97.514346" y="244.078125" style="stroke: #000000; stroke-width: 0.8"/>
      </g>
     </g>
     <g id="text_2">
      <!-- 0.5 -->
      <g transform="translate(89.562783 258.676562) scale(0.1 -0.1)">
       <defs>
        <path id="DejaVuSans-35" d="M 691 4666 
L 3169 4666 
L 3169 4134 
L 1269 4134 
L 1269 2991 
Q 1406 3038 1543 3061 
Q 1681 3084 1819 3084 
Q 2600 3084 3056 2656 
Q 3513 2228 3513 1497 
Q 3513 744 3044 326 
Q 2575 -91 1722 -91 
Q 1428 -91 1123 -41 
Q 819 9 494 109 
L 494 744 
Q 775 591 1075 516 
Q 1375 441 1709 441 
Q 2250 441 2565 725 
Q 2881 1009 2881 1497 
Q 2881 1984 2565 2268 
Q 2250 2553 1709 2553 
Q 1456 2553 1204 2497 
Q 953 2441 691 2322 
L 691 4666 
z
" transform="scale(0.015625)"/>
       </defs>
       <use xlink:href="#DejaVuSans-30"/>
       <use xlink:href="#DejaVuSans-2e" transform="translate(63.623047 0)"/>
       <use xlink:href="#DejaVuSans-35" transform="translate(95.410156 0)"/>
      </g>
     </g>
    </g>
    <g id="xtick_3">
     <g id="line2d_3">
      <g>
       <use xlink:href="#m11a3cccdcb" x="142.29557" y="244.078125" style="stroke: #000000; stroke-width: 0.8"/>
      </g>
     </g>
     <g id="text_3">
      <!-- 1.0 -->
      <g transform="translate(134.344007 258.676562) scale(0.1 -0.1)">
       <defs>
        <path id="DejaVuSans-31" d="M 794 531 
L 1825 531 
L 1825 4091 
L 703 3866 
L 703 4441 
L 1819 4666 
L 2450 4666 
L 2450 531 
L 3481 531 
L 3481 0 
L 794 0 
L 794 531 
z
" transform="scale(0.015625)"/>
       </defs>
       <use xlink:href="#DejaVuSans-31"/>
       <use xlink:href="#DejaVuSans-2e" transform="translate(63.623047 0)"/>
       <use xlink:href="#DejaVuSans-30" transform="translate(95.410156 0)"/>
      </g>
     </g>
    </g>
    <g id="xtick_4">
     <g id="line2d_4">
      <g>
       <use xlink:href="#m11a3cccdcb" x="187.076794" y="244.078125" style="stroke: #000000; stroke-width: 0.8"/>
      </g>
     </g>
     <g id="text_4">
      <!-- 1.5 -->
      <g transform="translate(179.125232 258.676562) scale(0.1 -0.1)">
       <use xlink:href="#DejaVuSans-31"/>
       <use xlink:href="#DejaVuSans-2e" transform="translate(63.623047 0)"/>
       <use xlink:href="#DejaVuSans-35" transform="translate(95.410156 0)"/>
      </g>
     </g>
    </g>
    <g id="xtick_5">
     <g id="line2d_5">
      <g>
       <use xlink:href="#m11a3cccdcb" x="231.858018" y="244.078125" style="stroke: #000000; stroke-width: 0.8"/>
      </g>
     </g>
     <g id="text_5">
      <!-- 2.0 -->
      <g transform="translate(223.906456 258.676562) scale(0.1 -0.1)">
       <defs>
        <path id="DejaVuSans-32" d="M 1228 531 
L 3431 531 
L 3431 0 
L 469 0 
L 469 531 
Q 828 903 1448 1529 
Q 2069 2156 2228 2338 
Q 2531 2678 2651 2914 
Q 2772 3150 2772 3378 
Q 2772 3750 2511 3984 
Q 2250 4219 1831 4219 
Q 1534 4219 1204 4116 
Q 875 4013 500 3803 
L 500 4441 
Q 881 4594 1212 4672 
Q 1544 4750 1819 4750 
Q 2544 4750 2975 4387 
Q 3406 4025 3406 3419 
Q 3406 3131 3298 2873 
Q 3191 2616 2906 2266 
Q 2828 2175 2409 1742 
Q 1991 1309 1228 531 
z
" transform="scale(0.015625)"/>
       </defs>
       <use xlink:href="#DejaVuSans-32"/>
       <use xlink:href="#DejaVuSans-2e" transform="translate(63.623047 0)"/>
       <use xlink:href="#DejaVuSans-30" transform="translate(95.410156 0)"/>
      </g>
     </g>
    </g>
    <g id="text_6">
     <!-- Time [s] -->
     <g transform="translate(121.922932 272.354687) scale(0.1 -0.1)">
      <defs>
       <path id="DejaVuSans-54" d="M -19 4666 
L 3928 4666 
L 3928 4134 
L 2272 4134 
L 2272 0 
L 1638 0 
L 1638 4134 
L -19 4134 
L -19 4666 
z
" transform="scale(0.015625)"/>
       <path id="DejaVuSans-69" d="M 603 3500 
L 1178 3500 
L 1178 0 
L 603 0 
L 603 3500 
z
M 603 4863 
L 1178 4863 
L 1178 4134 
L 603 4134 
L 603 4863 
z
" transform="scale(0.015625)"/>
       <path id="DejaVuSans-6d" d="M 3328 2828 
Q 3544 3216 3844 3400 
Q 4144 3584 4550 3584 
Q 5097 3584 5394 3201 
Q 5691 2819 5691 2113 
L 5691 0 
L 5113 0 
L 5113 2094 
Q 5113 2597 4934 2840 
Q 4756 3084 4391 3084 
Q 3944 3084 3684 2787 
Q 3425 2491 3425 1978 
L 3425 0 
L 2847 0 
L 2847 2094 
Q 2847 2600 2669 2842 
Q 2491 3084 2119 3084 
Q 1678 3084 1418 2786 
Q 1159 2488 1159 1978 
L 1159 0 
L 581 0 
L 581 3500 
L 1159 3500 
L 1159 2956 
Q 1356 3278 1631 3431 
Q 1906 3584 2284 3584 
Q 2666 3584 2933 3390 
Q 3200 3197 3328 2828 
z
" transform="scale(0.015625)"/>
       <path id="DejaVuSans-65" d="M 3597 1894 
L 3597 1613 
L 953 1613 
Q 991 1019 1311 708 
Q 1631 397 2203 397 
Q 2534 397 2845 478 
Q 3156 559 3463 722 
L 3463 178 
Q 3153 47 2828 -22 
Q 2503 -91 2169 -91 
Q 1331 -91 842 396 
Q 353 884 353 1716 
Q 353 2575 817 3079 
Q 1281 3584 2069 3584 
Q 2775 3584 3186 3129 
Q 3597 2675 3597 1894 
z
M 3022 2063 
Q 3016 2534 2758 2815 
Q 2500 3097 2075 3097 
Q 1594 3097 1305 2825 
Q 1016 2553 972 2059 
L 3022 2063 
z
" transform="scale(0.015625)"/>
       <path id="DejaVuSans-20" transform="scale(0.015625)"/>
       <path id="DejaVuSans-5b" d="M 550 4863 
L 1875 4863 
L 1875 4416 
L 1125 4416 
L 1125 -397 
L 1875 -397 
L 1875 -844 
L 550 -844 
L 550 4863 
z
" transform="scale(0.015625)"/>
       <path id="DejaVuSans-73" d="M 2834 3397 
L 2834 2853 
Q 2591 2978 2328 3040 
Q 2066 3103 1784 3103 
Q 1356 3103 1142 2972 
Q 928 2841 928 2578 
Q 928 2378 1081 2264 
Q 1234 2150 1697 2047 
L 1894 2003 
Q 2506 1872 2764 1633 
Q 3022 1394 3022 966 
Q 3022 478 2636 193 
Q 2250 -91 1575 -91 
Q 1294 -91 989 -36 
Q 684 19 347 128 
L 347 722 
Q 666 556 975 473 
Q 1284 391 1588 391 
Q 1994 391 2212 530 
Q 2431 669 2431 922 
Q 2431 1156 2273 1281 
Q 2116 1406 1581 1522 
L 1381 1569 
Q 847 1681 609 1914 
Q 372 2147 372 2553 
Q 372 3047 722 3315 
Q 1072 3584 1716 3584 
Q 2034 3584 2315 3537 
Q 2597 3491 2834 3397 
z
" transform="scale(0.015625)"/>
       <path id="DejaVuSans-5d" d="M 1947 4863 
L 1947 -844 
L 622 -844 
L 622 -397 
L 1369 -397 
L 1369 4416 
L 622 4416 
L 622 4863 
L 1947 4863 
z
" transform="scale(0.015625)"/>
      </defs>
      <use xlink:href="#DejaVuSans-54"/>
      <use xlink:href="#DejaVuSans-69" transform="translate(57.958984 0)"/>
      <use xlink:href="#DejaVuSans-6d" transform="translate(85.742188 0)"/>
      <use xlink:href="#DejaVuSans-65" transform="translate(183.154297 0)"/>
      <use xlink:href="#DejaVuSans-20" transform="translate(244.677734 0)"/>
      <use xlink:href="#DejaVuSans-5b" transform="translate(276.464844 0)"/>
      <use xlink:href="#DejaVuSans-73" transform="translate(315.478516 0)"/>
      <use xlink:href="#DejaVuSans-5d" transform="translate(367.578125 0)"/>
     </g>
    </g>
   </g>
   <g id="matplotlib.axis_2">
    <g id="ytick_1">
     <g id="line2d_6">
      <defs>
       <path id="m503ebb10db" d="M 0 0 
L -3.5 0 
" style="stroke: #000000; stroke-width: 0.8"/>
      </defs>
      <g>
       <use xlink:href="#m503ebb10db" x="43.78125" y="233.998125" style="stroke: #000000; stroke-width: 0.8"/>
      </g>
     </g>
     <g id="text_7">
      <!-- 0.0 -->
      <g transform="translate(20.878125 237.797344) scale(0.1 -0.1)">
       <use xlink:href="#DejaVuSans-30"/>
       <use xlink:href="#DejaVuSans-2e" transform="translate(63.623047 0)"/>
       <use xlink:href="#DejaVuSans-30" transform="translate(95.410156 0)"/>
      </g>
     </g>
    </g>
    <g id="ytick_2">
     <g id="line2d_7">
      <g>
       <use xlink:href="#m503ebb10db" x="43.78125" y="193.638712" style="stroke: #000000; stroke-width: 0.8"/>
      </g>
     </g>
     <g id="text_8">
      <!-- 0.2 -->
      <g transform="translate(20.878125 197.43793) scale(0.1 -0.1)">
       <use xlink:href="#DejaVuSans-30"/>
       <use xlink:href="#DejaVuSans-2e" transform="translate(63.623047 0)"/>
       <use xlink:href="#DejaVuSans-32" transform="translate(95.410156 0)"/>
      </g>
     </g>
    </g>
    <g id="ytick_3">
     <g id="line2d_8">
      <g>
       <use xlink:href="#m503ebb10db" x="43.78125" y="153.279298" style="stroke: #000000; stroke-width: 0.8"/>
      </g>
     </g>
     <g id="text_9">
      <!-- 0.4 -->
      <g transform="translate(20.878125 157.078517) scale(0.1 -0.1)">
       <defs>
        <path id="DejaVuSans-34" d="M 2419 4116 
L 825 1625 
L 2419 1625 
L 2419 4116 
z
M 2253 4666 
L 3047 4666 
L 3047 1625 
L 3713 1625 
L 3713 1100 
L 3047 1100 
L 3047 0 
L 2419 0 
L 2419 1100 
L 313 1100 
L 313 1709 
L 2253 4666 
z
" transform="scale(0.015625)"/>
       </defs>
       <use xlink:href="#DejaVuSans-30"/>
       <use xlink:href="#DejaVuSans-2e" transform="translate(63.623047 0)"/>
       <use xlink:href="#DejaVuSans-34" transform="translate(95.410156 0)"/>
      </g>
     </g>
    </g>
    <g id="ytick_4">
     <g id="line2d_9">
      <g>
       <use xlink:href="#m503ebb10db" x="43.78125" y="112.919885" style="stroke: #000000; stroke-width: 0.8"/>
      </g>
     </g>
     <g id="text_10">
      <!-- 0.6 -->
      <g transform="translate(20.878125 116.719103) scale(0.1 -0.1)">
       <defs>
        <path id="DejaVuSans-36" d="M 2113 2584 
Q 1688 2584 1439 2293 
Q 1191 2003 1191 1497 
Q 1191 994 1439 701 
Q 1688 409 2113 409 
Q 2538 409 2786 701 
Q 3034 994 3034 1497 
Q 3034 2003 2786 2293 
Q 2538 2584 2113 2584 
z
M 3366 4563 
L 3366 3988 
Q 3128 4100 2886 4159 
Q 2644 4219 2406 4219 
Q 1781 4219 1451 3797 
Q 1122 3375 1075 2522 
Q 1259 2794 1537 2939 
Q 1816 3084 2150 3084 
Q 2853 3084 3261 2657 
Q 3669 2231 3669 1497 
Q 3669 778 3244 343 
Q 2819 -91 2113 -91 
Q 1303 -91 875 529 
Q 447 1150 447 2328 
Q 447 3434 972 4092 
Q 1497 4750 2381 4750 
Q 2619 4750 2861 4703 
Q 3103 4656 3366 4563 
z
" transform="scale(0.015625)"/>
       </defs>
       <use xlink:href="#DejaVuSans-30"/>
       <use xlink:href="#DejaVuSans-2e" transform="translate(63.623047 0)"/>
       <use xlink:href="#DejaVuSans-36" transform="translate(95.410156 0)"/>
      </g>
     </g>
    </g>
    <g id="ytick_5">
     <g id="line2d_10">
      <g>
       <use xlink:href="#m503ebb10db" x="43.78125" y="72.560471" style="stroke: #000000; stroke-width: 0.8"/>
      </g>
     </g>
     <g id="text_11">
      <!-- 0.8 -->
      <g transform="translate(20.878125 76.35969) scale(0.1 -0.1)">
       <defs>
        <path id="DejaVuSans-38" d="M 2034 2216 
Q 1584 2216 1326 1975 
Q 1069 1734 1069 1313 
Q 1069 891 1326 650 
Q 1584 409 2034 409 
Q 2484 409 2743 651 
Q 3003 894 3003 1313 
Q 3003 1734 2745 1975 
Q 2488 2216 2034 2216 
z
M 1403 2484 
Q 997 2584 770 2862 
Q 544 3141 544 3541 
Q 544 4100 942 4425 
Q 1341 4750 2034 4750 
Q 2731 4750 3128 4425 
Q 3525 4100 3525 3541 
Q 3525 3141 3298 2862 
Q 3072 2584 2669 2484 
Q 3125 2378 3379 2068 
Q 3634 1759 3634 1313 
Q 3634 634 3220 271 
Q 2806 -91 2034 -91 
Q 1263 -91 848 271 
Q 434 634 434 1313 
Q 434 1759 690 2068 
Q 947 2378 1403 2484 
z
M 1172 3481 
Q 1172 3119 1398 2916 
Q 1625 2713 2034 2713 
Q 2441 2713 2670 2916 
Q 2900 3119 2900 3481 
Q 2900 3844 2670 4047 
Q 2441 4250 2034 4250 
Q 1625 4250 1398 4047 
Q 1172 3844 1172 3481 
z
" transform="scale(0.015625)"/>
       </defs>
       <use xlink:href="#DejaVuSans-30"/>
       <use xlink:href="#DejaVuSans-2e" transform="translate(63.623047 0)"/>
       <use xlink:href="#DejaVuSans-38" transform="translate(95.410156 0)"/>
      </g>
     </g>
    </g>
    <g id="ytick_6">
     <g id="line2d_11">
      <g>
       <use xlink:href="#m503ebb10db" x="43.78125" y="32.201058" style="stroke: #000000; stroke-width: 0.8"/>
      </g>
     </g>
     <g id="text_12">
      <!-- 1.0 -->
      <g transform="translate(20.878125 36.000276) scale(0.1 -0.1)">
       <use xlink:href="#DejaVuSans-31"/>
       <use xlink:href="#DejaVuSans-2e" transform="translate(63.623047 0)"/>
       <use xlink:href="#DejaVuSans-30" transform="translate(95.410156 0)"/>
      </g>
     </g>
    </g>
    <g id="text_13">
     <!-- Amplitude -->
     <g transform="translate(14.798438 158.820781) rotate(-90) scale(0.1 -0.1)">
      <defs>
       <path id="DejaVuSans-41" d="M 2188 4044 
L 1331 1722 
L 3047 1722 
L 2188 4044 
z
M 1831 4666 
L 2547 4666 
L 4325 0 
L 3669 0 
L 3244 1197 
L 1141 1197 
L 716 0 
L 50 0 
L 1831 4666 
z
" transform="scale(0.015625)"/>
       <path id="DejaVuSans-70" d="M 1159 525 
L 1159 -1331 
L 581 -1331 
L 581 3500 
L 1159 3500 
L 1159 2969 
Q 1341 3281 1617 3432 
Q 1894 3584 2278 3584 
Q 2916 3584 3314 3078 
Q 3713 2572 3713 1747 
Q 3713 922 3314 415 
Q 2916 -91 2278 -91 
Q 1894 -91 1617 61 
Q 1341 213 1159 525 
z
M 3116 1747 
Q 3116 2381 2855 2742 
Q 2594 3103 2138 3103 
Q 1681 3103 1420 2742 
Q 1159 2381 1159 1747 
Q 1159 1113 1420 752 
Q 1681 391 2138 391 
Q 2594 391 2855 752 
Q 3116 1113 3116 1747 
z
" transform="scale(0.015625)"/>
       <path id="DejaVuSans-6c" d="M 603 4863 
L 1178 4863 
L 1178 0 
L 603 0 
L 603 4863 
z
" transform="scale(0.015625)"/>
       <path id="DejaVuSans-74" d="M 1172 4494 
L 1172 3500 
L 2356 3500 
L 2356 3053 
L 1172 3053 
L 1172 1153 
Q 1172 725 1289 603 
Q 1406 481 1766 481 
L 2356 481 
L 2356 0 
L 1766 0 
Q 1100 0 847 248 
Q 594 497 594 1153 
L 594 3053 
L 172 3053 
L 172 3500 
L 594 3500 
L 594 4494 
L 1172 4494 
z
" transform="scale(0.015625)"/>
       <path id="DejaVuSans-75" d="M 544 1381 
L 544 3500 
L 1119 3500 
L 1119 1403 
Q 1119 906 1312 657 
Q 1506 409 1894 409 
Q 2359 409 2629 706 
Q 2900 1003 2900 1516 
L 2900 3500 
L 3475 3500 
L 3475 0 
L 2900 0 
L 2900 538 
Q 2691 219 2414 64 
Q 2138 -91 1772 -91 
Q 1169 -91 856 284 
Q 544 659 544 1381 
z
M 1991 3584 
L 1991 3584 
z
" transform="scale(0.015625)"/>
       <path id="DejaVuSans-64" d="M 2906 2969 
L 2906 4863 
L 3481 4863 
L 3481 0 
L 2906 0 
L 2906 525 
Q 2725 213 2448 61 
Q 2172 -91 1784 -91 
Q 1150 -91 751 415 
Q 353 922 353 1747 
Q 353 2572 751 3078 
Q 1150 3584 1784 3584 
Q 2172 3584 2448 3432 
Q 2725 3281 2906 2969 
z
M 947 1747 
Q 947 1113 1208 752 
Q 1469 391 1925 391 
Q 2381 391 2643 752 
Q 2906 1113 2906 1747 
Q 2906 2381 2643 2742 
Q 2381 3103 1925 3103 
Q 1469 3103 1208 2742 
Q 947 2381 947 1747 
z
" transform="scale(0.015625)"/>
      </defs>
      <use xlink:href="#DejaVuSans-41"/>
      <use xlink:href="#DejaVuSans-6d" transform="translate(68.408203 0)"/>
      <use xlink:href="#DejaVuSans-70" transform="translate(165.820312 0)"/>
      <use xlink:href="#DejaVuSans-6c" transform="translate(229.296875 0)"/>
      <use xlink:href="#DejaVuSans-69" transform="translate(257.080078 0)"/>
      <use xlink:href="#DejaVuSans-74" transform="translate(284.863281 0)"/>
      <use xlink:href="#DejaVuSans-75" transform="translate(324.072266 0)"/>
      <use xlink:href="#DejaVuSans-64" transform="translate(387.451172 0)"/>
      <use xlink:href="#DejaVuSans-65" transform="translate(450.927734 0)"/>
     </g>
    </g>
   </g>
   <g id="line2d_12">
    <path d="M 52.733122 133.099591 
L 97.426882 32.398125 
L 97.514346 233.998125 
L 97.601809 233.801058 
L 186.989331 32.398125 
L 187.076794 233.998125 
L 187.164257 233.801058 
L 231.770555 133.296659 
L 231.770555 133.296659 
" clip-path="url(#p4b46f69fc1)" style="fill: none; stroke: #000000; stroke-width: 1.5; stroke-linecap: square"/>
   </g>
   <g id="line2d_13">
    <path d="M 52.733122 133.099591 
L 55.531948 120.963304 
L 57.018825 115.44784 
L 58.243311 111.685326 
L 59.292871 109.106587 
L 60.254968 107.290169 
L 61.129601 106.085411 
L 61.916771 105.342213 
L 62.703941 104.889066 
L 63.491111 104.682958 
L 64.365744 104.679462 
L 65.590231 104.916706 
L 67.426961 105.278312 
L 68.301594 105.222871 
L 69.088764 104.938064 
L 69.788471 104.444684 
L 70.488177 103.684088 
L 71.275347 102.467819 
L 72.062517 100.834792 
L 72.937151 98.503211 
L 73.899247 95.297485 
L 75.03627 90.66863 
L 76.34822 84.315918 
L 78.097487 74.596186 
L 82.033337 52.272735 
L 83.257823 46.831718 
L 84.21992 43.559043 
L 84.919626 41.852922 
L 85.53187 40.884236 
L 85.969186 40.514687 
L 86.406503 40.428045 
L 86.756356 40.569837 
L 87.193673 41.018952 
L 87.718453 41.96698 
L 88.330696 43.649917 
L 89.030403 46.345748 
L 89.817573 50.366506 
L 90.692206 56.042428 
L 91.741766 64.461583 
L 92.966253 76.312901 
L 94.365666 92.121126 
L 96.289859 116.64069 
L 101.100342 179.244059 
L 102.587219 195.215699 
L 103.811705 206.159606 
L 104.861265 213.71297 
L 105.823362 219.050141 
L 106.610532 222.257509 
L 107.310239 224.232203 
L 107.922482 225.29458 
L 108.359798 225.682706 
L 108.797115 225.771165 
L 109.146968 225.632841 
L 109.584285 225.208158 
L 110.109065 224.34626 
L 110.721308 222.886331 
L 111.508478 220.357595 
L 112.470575 216.410281 
L 113.695062 210.324789 
L 115.531791 199.862686 
L 118.680471 181.883264 
L 120.167348 174.761879 
L 121.391834 169.961164 
L 122.441394 166.696871 
L 123.403491 164.403979 
L 124.278124 162.876222 
L 125.065294 161.918184 
L 125.852464 161.30947 
L 126.639634 160.99563 
L 127.426804 160.91419 
L 128.476364 161.048594 
L 131.187727 161.541972 
L 132.06236 161.403854 
L 132.84953 161.038334 
L 133.6367 160.395955 
L 134.42387 159.440782 
L 135.298504 157.983212 
L 136.2606 155.880524 
L 137.31016 152.996739 
L 138.534647 148.912011 
L 140.021523 143.089917 
L 142.208107 133.493711 
L 145.094396 120.963304 
L 146.581273 115.44784 
L 147.80576 111.685326 
L 148.85532 109.106587 
L 149.817416 107.290169 
L 150.692049 106.085411 
L 151.479219 105.342213 
L 152.266389 104.889066 
L 153.053559 104.682958 
L 153.928193 104.679462 
L 155.152679 104.916706 
L 156.989409 105.278312 
L 157.864042 105.222871 
L 158.651212 104.938064 
L 159.350919 104.444684 
L 160.050626 103.684088 
L 160.837796 102.467819 
L 161.624965 100.834792 
L 162.499599 98.503211 
L 163.461695 95.297485 
L 164.598719 90.66863 
L 165.910669 84.315918 
L 167.659935 74.596186 
L 171.595785 52.272735 
L 172.820271 46.831718 
L 173.782368 43.559043 
L 174.482075 41.852922 
L 175.094318 40.884236 
L 175.531635 40.514687 
L 175.968951 40.428045 
L 176.318805 40.569837 
L 176.756121 41.018952 
L 177.280901 41.96698 
L 177.893145 43.649917 
L 178.592851 46.345748 
L 179.380021 50.366506 
L 180.254654 56.042428 
L 181.304214 64.461583 
L 182.528701 76.312901 
L 183.928114 92.121126 
L 185.852307 116.64069 
L 190.66279 179.244059 
L 192.149667 195.215699 
L 193.374154 206.159606 
L 194.423714 213.71297 
L 195.38581 219.050141 
L 196.17298 222.257509 
L 196.872687 224.232203 
L 197.48493 225.29458 
L 197.922247 225.682706 
L 198.359563 225.771165 
L 198.709417 225.632841 
L 199.146733 225.208158 
L 199.671513 224.34626 
L 200.283757 222.886331 
L 201.070927 220.357595 
L 202.033023 216.410281 
L 203.25751 210.324789 
L 205.09424 199.862686 
L 208.242919 181.883264 
L 209.729796 174.761879 
L 210.954283 169.961164 
L 212.003843 166.696871 
L 212.965939 164.403979 
L 213.840572 162.876222 
L 214.627742 161.918184 
L 215.414912 161.30947 
L 216.202082 160.99563 
L 216.989252 160.91419 
L 218.038812 161.048594 
L 220.750175 161.541972 
L 221.624809 161.403854 
L 222.411979 161.038334 
L 223.199149 160.395955 
L 223.986319 159.440782 
L 224.860952 157.983212 
L 225.823048 155.880524 
L 226.872608 152.996739 
L 228.097095 148.912011 
L 229.583972 143.089917 
L 231.770555 133.493711 
L 231.770555 133.493711 
" clip-path="url(#p4b46f69fc1)" style="fill: none; stroke-dasharray: 5.55,2.4; stroke-dashoffset: 0; stroke: #1f77b4; stroke-width: 1.5"/>
   </g>
   <g id="patch_3">
    <path d="M 43.78125 244.078125 
L 43.78125 22.318125 
" style="fill: none; stroke: #000000; stroke-width: 0.8; stroke-linejoin: miter; stroke-linecap: square"/>
   </g>
   <g id="patch_4">
    <path d="M 240.722426 244.078125 
L 240.722426 22.318125 
" style="fill: none; stroke: #000000; stroke-width: 0.8; stroke-linejoin: miter; stroke-linecap: square"/>
   </g>
   <g id="patch_5">
    <path d="M 43.78125 244.078125 
L 240.722426 244.078125 
" style="fill: none; stroke: #000000; stroke-width: 0.8; stroke-linejoin: miter; stroke-linecap: square"/>
   </g>
   <g id="patch_6">
    <path d="M 43.78125 22.318125 
L 240.722426 22.318125 
" style="fill: none; stroke: #000000; stroke-width: 0.8; stroke-linejoin: miter; stroke-linecap: square"/>
   </g>
   <g id="text_14">
    <!-- Sawtooth vs Fourier (n=3) -->
    <g transform="translate(63.283401 16.318125) scale(0.12 -0.12)">
     <defs>
      <path id="DejaVuSans-53" d="M 3425 4513 
L 3425 3897 
Q 3066 4069 2747 4153 
Q 2428 4238 2131 4238 
Q 1616 4238 1336 4038 
Q 1056 3838 1056 3469 
Q 1056 3159 1242 3001 
Q 1428 2844 1947 2747 
L 2328 2669 
Q 3034 2534 3370 2195 
Q 3706 1856 3706 1288 
Q 3706 609 3251 259 
Q 2797 -91 1919 -91 
Q 1588 -91 1214 -16 
Q 841 59 441 206 
L 441 856 
Q 825 641 1194 531 
Q 1563 422 1919 422 
Q 2459 422 2753 634 
Q 3047 847 3047 1241 
Q 3047 1584 2836 1778 
Q 2625 1972 2144 2069 
L 1759 2144 
Q 1053 2284 737 2584 
Q 422 2884 422 3419 
Q 422 4038 858 4394 
Q 1294 4750 2059 4750 
Q 2388 4750 2728 4690 
Q 3069 4631 3425 4513 
z
" transform="scale(0.015625)"/>
      <path id="DejaVuSans-61" d="M 2194 1759 
Q 1497 1759 1228 1600 
Q 959 1441 959 1056 
Q 959 750 1161 570 
Q 1363 391 1709 391 
Q 2188 391 2477 730 
Q 2766 1069 2766 1631 
L 2766 1759 
L 2194 1759 
z
M 3341 1997 
L 3341 0 
L 2766 0 
L 2766 531 
Q 2569 213 2275 61 
Q 1981 -91 1556 -91 
Q 1019 -91 701 211 
Q 384 513 384 1019 
Q 384 1609 779 1909 
Q 1175 2209 1959 2209 
L 2766 2209 
L 2766 2266 
Q 2766 2663 2505 2880 
Q 2244 3097 1772 3097 
Q 1472 3097 1187 3025 
Q 903 2953 641 2809 
L 641 3341 
Q 956 3463 1253 3523 
Q 1550 3584 1831 3584 
Q 2591 3584 2966 3190 
Q 3341 2797 3341 1997 
z
" transform="scale(0.015625)"/>
      <path id="DejaVuSans-77" d="M 269 3500 
L 844 3500 
L 1563 769 
L 2278 3500 
L 2956 3500 
L 3675 769 
L 4391 3500 
L 4966 3500 
L 4050 0 
L 3372 0 
L 2619 2869 
L 1863 0 
L 1184 0 
L 269 3500 
z
" transform="scale(0.015625)"/>
      <path id="DejaVuSans-6f" d="M 1959 3097 
Q 1497 3097 1228 2736 
Q 959 2375 959 1747 
Q 959 1119 1226 758 
Q 1494 397 1959 397 
Q 2419 397 2687 759 
Q 2956 1122 2956 1747 
Q 2956 2369 2687 2733 
Q 2419 3097 1959 3097 
z
M 1959 3584 
Q 2709 3584 3137 3096 
Q 3566 2609 3566 1747 
Q 3566 888 3137 398 
Q 2709 -91 1959 -91 
Q 1206 -91 779 398 
Q 353 888 353 1747 
Q 353 2609 779 3096 
Q 1206 3584 1959 3584 
z
" transform="scale(0.015625)"/>
      <path id="DejaVuSans-68" d="M 3513 2113 
L 3513 0 
L 2938 0 
L 2938 2094 
Q 2938 2591 2744 2837 
Q 2550 3084 2163 3084 
Q 1697 3084 1428 2787 
Q 1159 2491 1159 1978 
L 1159 0 
L 581 0 
L 581 4863 
L 1159 4863 
L 1159 2956 
Q 1366 3272 1645 3428 
Q 1925 3584 2291 3584 
Q 2894 3584 3203 3211 
Q 3513 2838 3513 2113 
z
" transform="scale(0.015625)"/>
      <path id="DejaVuSans-76" d="M 191 3500 
L 800 3500 
L 1894 563 
L 2988 3500 
L 3597 3500 
L 2284 0 
L 1503 0 
L 191 3500 
z
" transform="scale(0.015625)"/>
      <path id="DejaVuSans-46" d="M 628 4666 
L 3309 4666 
L 3309 4134 
L 1259 4134 
L 1259 2759 
L 3109 2759 
L 3109 2228 
L 1259 2228 
L 1259 0 
L 628 0 
L 628 4666 
z
" transform="scale(0.015625)"/>
      <path id="DejaVuSans-72" d="M 2631 2963 
Q 2534 3019 2420 3045 
Q 2306 3072 2169 3072 
Q 1681 3072 1420 2755 
Q 1159 2438 1159 1844 
L 1159 0 
L 581 0 
L 581 3500 
L 1159 3500 
L 1159 2956 
Q 1341 3275 1631 3429 
Q 1922 3584 2338 3584 
Q 2397 3584 2469 3576 
Q 2541 3569 2628 3553 
L 2631 2963 
z
" transform="scale(0.015625)"/>
      <path id="DejaVuSans-28" d="M 1984 4856 
Q 1566 4138 1362 3434 
Q 1159 2731 1159 2009 
Q 1159 1288 1364 580 
Q 1569 -128 1984 -844 
L 1484 -844 
Q 1016 -109 783 600 
Q 550 1309 550 2009 
Q 550 2706 781 3412 
Q 1013 4119 1484 4856 
L 1984 4856 
z
" transform="scale(0.015625)"/>
      <path id="DejaVuSans-6e" d="M 3513 2113 
L 3513 0 
L 2938 0 
L 2938 2094 
Q 2938 2591 2744 2837 
Q 2550 3084 2163 3084 
Q 1697 3084 1428 2787 
Q 1159 2491 1159 1978 
L 1159 0 
L 581 0 
L 581 3500 
L 1159 3500 
L 1159 2956 
Q 1366 3272 1645 3428 
Q 1925 3584 2291 3584 
Q 2894 3584 3203 3211 
Q 3513 2838 3513 2113 
z
" transform="scale(0.015625)"/>
      <path id="DejaVuSans-3d" d="M 678 2906 
L 4684 2906 
L 4684 2381 
L 678 2381 
L 678 2906 
z
M 678 1631 
L 4684 1631 
L 4684 1100 
L 678 1100 
L 678 1631 
z
" transform="scale(0.015625)"/>
      <path id="DejaVuSans-33" d="M 2597 2516 
Q 3050 2419 3304 2112 
Q 3559 1806 3559 1356 
Q 3559 666 3084 287 
Q 2609 -91 1734 -91 
Q 1441 -91 1130 -33 
Q 819 25 488 141 
L 488 750 
Q 750 597 1062 519 
Q 1375 441 1716 441 
Q 2309 441 2620 675 
Q 2931 909 2931 1356 
Q 2931 1769 2642 2001 
Q 2353 2234 1838 2234 
L 1294 2234 
L 1294 2753 
L 1863 2753 
Q 2328 2753 2575 2939 
Q 2822 3125 2822 3475 
Q 2822 3834 2567 4026 
Q 2313 4219 1838 4219 
Q 1578 4219 1281 4162 
Q 984 4106 628 3988 
L 628 4550 
Q 988 4650 1302 4700 
Q 1616 4750 1894 4750 
Q 2613 4750 3031 4423 
Q 3450 4097 3450 3541 
Q 3450 3153 3228 2886 
Q 3006 2619 2597 2516 
z
" transform="scale(0.015625)"/>
      <path id="DejaVuSans-29" d="M 513 4856 
L 1013 4856 
Q 1481 4119 1714 3412 
Q 1947 2706 1947 2009 
Q 1947 1309 1714 600 
Q 1481 -109 1013 -844 
L 513 -844 
Q 928 -128 1133 580 
Q 1338 1288 1338 2009 
Q 1338 2731 1133 3434 
Q 928 4138 513 4856 
z
" transform="scale(0.015625)"/>
     </defs>
     <use xlink:href="#DejaVuSans-53"/>
     <use xlink:href="#DejaVuSans-61" transform="translate(63.476562 0)"/>
     <use xlink:href="#DejaVuSans-77" transform="translate(124.755859 0)"/>
     <use xlink:href="#DejaVuSans-74" transform="translate(206.542969 0)"/>
     <use xlink:href="#DejaVuSans-6f" transform="translate(245.751953 0)"/>
     <use xlink:href="#DejaVuSans-6f" transform="translate(306.933594 0)"/>
     <use xlink:href="#DejaVuSans-74" transform="translate(368.115234 0)"/>
     <use xlink:href="#DejaVuSans-68" transform="translate(407.324219 0)"/>
     <use xlink:href="#DejaVuSans-20" transform="translate(470.703125 0)"/>
     <use xlink:href="#DejaVuSans-76" transform="translate(502.490234 0)"/>
     <use xlink:href="#DejaVuSans-73" transform="translate(561.669922 0)"/>
     <use xlink:href="#DejaVuSans-20" transform="translate(613.769531 0)"/>
     <use xlink:href="#DejaVuSans-46" transform="translate(645.556641 0)"/>
     <use xlink:href="#DejaVuSans-6f" transform="translate(699.451172 0)"/>
     <use xlink:href="#DejaVuSans-75" transform="translate(760.632812 0)"/>
     <use xlink:href="#DejaVuSans-72" transform="translate(824.011719 0)"/>
     <use xlink:href="#DejaVuSans-69" transform="translate(865.125 0)"/>
     <use xlink:href="#DejaVuSans-65" transform="translate(892.908203 0)"/>
     <use xlink:href="#DejaVuSans-72" transform="translate(954.431641 0)"/>
     <use xlink:href="#DejaVuSans-20" transform="translate(995.544922 0)"/>
     <use xlink:href="#DejaVuSans-28" transform="translate(1027.332031 0)"/>
     <use xlink:href="#DejaVuSans-6e" transform="translate(1066.345703 0)"/>
     <use xlink:href="#DejaVuSans-3d" transform="translate(1129.724609 0)"/>
     <use xlink:href="#DejaVuSans-33" transform="translate(1213.513672 0)"/>
     <use xlink:href="#DejaVuSans-29" transform="translate(1277.136719 0)"/>
    </g>
   </g>
   <g id="legend_1">
    <g id="patch_7">
     <path d="M 154.652114 149.37625 
L 233.722426 149.37625 
Q 235.722426 149.37625 235.722426 147.37625 
L 235.722426 119.02 
Q 235.722426 117.02 233.722426 117.02 
L 154.652114 117.02 
Q 152.652114 117.02 152.652114 119.02 
L 152.652114 147.37625 
Q 152.652114 149.37625 154.652114 149.37625 
z
" style="fill: #ffffff; opacity: 0.8; stroke: #cccccc; stroke-linejoin: miter"/>
    </g>
    <g id="line2d_14">
     <path d="M 156.652114 125.118437 
L 166.652114 125.118437 
L 176.652114 125.118437 
" style="fill: none; stroke: #000000; stroke-width: 1.5; stroke-linecap: square"/>
    </g>
    <g id="text_15">
     <!-- Sawtooth -->
     <g transform="translate(184.652114 128.618437) scale(0.1 -0.1)">
      <use xlink:href="#DejaVuSans-53"/>
      <use xlink:href="#DejaVuSans-61" transform="translate(63.476562 0)"/>
      <use xlink:href="#DejaVuSans-77" transform="translate(124.755859 0)"/>
      <use xlink:href="#DejaVuSans-74" transform="translate(206.542969 0)"/>
      <use xlink:href="#DejaVuSans-6f" transform="translate(245.751953 0)"/>
      <use xlink:href="#DejaVuSans-6f" transform="translate(306.933594 0)"/>
      <use xlink:href="#DejaVuSans-74" transform="translate(368.115234 0)"/>
      <use xlink:href="#DejaVuSans-68" transform="translate(407.324219 0)"/>
     </g>
    </g>
    <g id="line2d_15">
     <path d="M 156.652114 139.796562 
L 166.652114 139.796562 
L 176.652114 139.796562 
" style="fill: none; stroke-dasharray: 5.55,2.4; stroke-dashoffset: 0; stroke: #1f77b4; stroke-width: 1.5"/>
    </g>
    <g id="text_16">
     <!-- Fourier -->
     <g transform="translate(184.652114 143.296562) scale(0.1 -0.1)">
      <use xlink:href="#DejaVuSans-46"/>
      <use xlink:href="#DejaVuSans-6f" transform="translate(53.894531 0)"/>
      <use xlink:href="#DejaVuSans-75" transform="translate(115.076172 0)"/>
      <use xlink:href="#DejaVuSans-72" transform="translate(178.455078 0)"/>
      <use xlink:href="#DejaVuSans-69" transform="translate(219.568359 0)"/>
      <use xlink:href="#DejaVuSans-65" transform="translate(247.351562 0)"/>
      <use xlink:href="#DejaVuSans-72" transform="translate(308.875 0)"/>
     </g>
    </g>
   </g>
  </g>
  <g id="axes_2">
   <g id="patch_8">
    <path d="M 280.110662 244.078125 
L 477.051838 244.078125 
L 477.051838 22.318125 
L 280.110662 22.318125 
z
" style="fill: #ffffff"/>
   </g>
   <g id="matplotlib.axis_3">
    <g id="xtick_6">
     <g id="line2d_16">
      <g>
       <use xlink:href="#m11a3cccdcb" x="289.062533" y="244.078125" style="stroke: #000000; stroke-width: 0.8"/>
      </g>
     </g>
     <g id="text_17">
      <!-- 0.0 -->
      <g transform="translate(281.110971 258.676562) scale(0.1 -0.1)">
       <use xlink:href="#DejaVuSans-30"/>
       <use xlink:href="#DejaVuSans-2e" transform="translate(63.623047 0)"/>
       <use xlink:href="#DejaVuSans-30" transform="translate(95.410156 0)"/>
      </g>
     </g>
    </g>
    <g id="xtick_7">
     <g id="line2d_17">
      <g>
       <use xlink:href="#m11a3cccdcb" x="333.843758" y="244.078125" style="stroke: #000000; stroke-width: 0.8"/>
      </g>
     </g>
     <g id="text_18">
      <!-- 0.5 -->
      <g transform="translate(325.892195 258.676562) scale(0.1 -0.1)">
       <use xlink:href="#DejaVuSans-30"/>
       <use xlink:href="#DejaVuSans-2e" transform="translate(63.623047 0)"/>
       <use xlink:href="#DejaVuSans-35" transform="translate(95.410156 0)"/>
      </g>
     </g>
    </g>
    <g id="xtick_8">
     <g id="line2d_18">
      <g>
       <use xlink:href="#m11a3cccdcb" x="378.624982" y="244.078125" style="stroke: #000000; stroke-width: 0.8"/>
      </g>
     </g>
     <g id="text_19">
      <!-- 1.0 -->
      <g transform="translate(370.673419 258.676562) scale(0.1 -0.1)">
       <use xlink:href="#DejaVuSans-31"/>
       <use xlink:href="#DejaVuSans-2e" transform="translate(63.623047 0)"/>
       <use xlink:href="#DejaVuSans-30" transform="translate(95.410156 0)"/>
      </g>
     </g>
    </g>
    <g id="xtick_9">
     <g id="line2d_19">
      <g>
       <use xlink:href="#m11a3cccdcb" x="423.406206" y="244.078125" style="stroke: #000000; stroke-width: 0.8"/>
      </g>
     </g>
     <g id="text_20">
      <!-- 1.5 -->
      <g transform="translate(415.454643 258.676562) scale(0.1 -0.1)">
       <use xlink:href="#DejaVuSans-31"/>
       <use xlink:href="#DejaVuSans-2e" transform="translate(63.623047 0)"/>
       <use xlink:href="#DejaVuSans-35" transform="translate(95.410156 0)"/>
      </g>
     </g>
    </g>
    <g id="xtick_10">
     <g id="line2d_20">
      <g>
       <use xlink:href="#m11a3cccdcb" x="468.18743" y="244.078125" style="stroke: #000000; stroke-width: 0.8"/>
      </g>
     </g>
     <g id="text_21">
      <!-- 2.0 -->
      <g transform="translate(460.235867 258.676562) scale(0.1 -0.1)">
       <use xlink:href="#DejaVuSans-32"/>
       <use xlink:href="#DejaVuSans-2e" transform="translate(63.623047 0)"/>
       <use xlink:href="#DejaVuSans-30" transform="translate(95.410156 0)"/>
      </g>
     </g>
    </g>
    <g id="text_22">
     <!-- Time [s] -->
     <g transform="translate(358.252344 272.354687) scale(0.1 -0.1)">
      <use xlink:href="#DejaVuSans-54"/>
      <use xlink:href="#DejaVuSans-69" transform="translate(57.958984 0)"/>
      <use xlink:href="#DejaVuSans-6d" transform="translate(85.742188 0)"/>
      <use xlink:href="#DejaVuSans-65" transform="translate(183.154297 0)"/>
      <use xlink:href="#DejaVuSans-20" transform="translate(244.677734 0)"/>
      <use xlink:href="#DejaVuSans-5b" transform="translate(276.464844 0)"/>
      <use xlink:href="#DejaVuSans-73" transform="translate(315.478516 0)"/>
      <use xlink:href="#DejaVuSans-5d" transform="translate(367.578125 0)"/>
     </g>
    </g>
   </g>
   <g id="matplotlib.axis_4">
    <g id="ytick_7">
     <g id="line2d_21">
      <g>
       <use xlink:href="#m503ebb10db" x="280.110662" y="230.805108" style="stroke: #000000; stroke-width: 0.8"/>
      </g>
     </g>
     <g id="text_23">
      <!-- 0.0 -->
      <g transform="translate(257.207537 234.604327) scale(0.1 -0.1)">
       <use xlink:href="#DejaVuSans-30"/>
       <use xlink:href="#DejaVuSans-2e" transform="translate(63.623047 0)"/>
       <use xlink:href="#DejaVuSans-30" transform="translate(95.410156 0)"/>
      </g>
     </g>
    </g>
    <g id="ytick_8">
     <g id="line2d_22">
      <g>
       <use xlink:href="#m503ebb10db" x="280.110662" y="191.762315" style="stroke: #000000; stroke-width: 0.8"/>
      </g>
     </g>
     <g id="text_24">
      <!-- 0.2 -->
      <g transform="translate(257.207537 195.561533) scale(0.1 -0.1)">
       <use xlink:href="#DejaVuSans-30"/>
       <use xlink:href="#DejaVuSans-2e" transform="translate(63.623047 0)"/>
       <use xlink:href="#DejaVuSans-32" transform="translate(95.410156 0)"/>
      </g>
     </g>
    </g>
    <g id="ytick_9">
     <g id="line2d_23">
      <g>
       <use xlink:href="#m503ebb10db" x="280.110662" y="152.719522" style="stroke: #000000; stroke-width: 0.8"/>
      </g>
     </g>
     <g id="text_25">
      <!-- 0.4 -->
      <g transform="translate(257.207537 156.51874) scale(0.1 -0.1)">
       <use xlink:href="#DejaVuSans-30"/>
       <use xlink:href="#DejaVuSans-2e" transform="translate(63.623047 0)"/>
       <use xlink:href="#DejaVuSans-34" transform="translate(95.410156 0)"/>
      </g>
     </g>
    </g>
    <g id="ytick_10">
     <g id="line2d_24">
      <g>
       <use xlink:href="#m503ebb10db" x="280.110662" y="113.676728" style="stroke: #000000; stroke-width: 0.8"/>
      </g>
     </g>
     <g id="text_26">
      <!-- 0.6 -->
      <g transform="translate(257.207537 117.475947) scale(0.1 -0.1)">
       <use xlink:href="#DejaVuSans-30"/>
       <use xlink:href="#DejaVuSans-2e" transform="translate(63.623047 0)"/>
       <use xlink:href="#DejaVuSans-36" transform="translate(95.410156 0)"/>
      </g>
     </g>
    </g>
    <g id="ytick_11">
     <g id="line2d_25">
      <g>
       <use xlink:href="#m503ebb10db" x="280.110662" y="74.633935" style="stroke: #000000; stroke-width: 0.8"/>
      </g>
     </g>
     <g id="text_27">
      <!-- 0.8 -->
      <g transform="translate(257.207537 78.433154) scale(0.1 -0.1)">
       <use xlink:href="#DejaVuSans-30"/>
       <use xlink:href="#DejaVuSans-2e" transform="translate(63.623047 0)"/>
       <use xlink:href="#DejaVuSans-38" transform="translate(95.410156 0)"/>
      </g>
     </g>
    </g>
    <g id="ytick_12">
     <g id="line2d_26">
      <g>
       <use xlink:href="#m503ebb10db" x="280.110662" y="35.591142" style="stroke: #000000; stroke-width: 0.8"/>
      </g>
     </g>
     <g id="text_28">
      <!-- 1.0 -->
      <g transform="translate(257.207537 39.390361) scale(0.1 -0.1)">
       <use xlink:href="#DejaVuSans-31"/>
       <use xlink:href="#DejaVuSans-2e" transform="translate(63.623047 0)"/>
       <use xlink:href="#DejaVuSans-30" transform="translate(95.410156 0)"/>
      </g>
     </g>
    </g>
    <g id="text_29">
     <!-- Amplitude -->
     <g transform="translate(251.127849 158.820781) rotate(-90) scale(0.1 -0.1)">
      <use xlink:href="#DejaVuSans-41"/>
      <use xlink:href="#DejaVuSans-6d" transform="translate(68.408203 0)"/>
      <use xlink:href="#DejaVuSans-70" transform="translate(165.820312 0)"/>
      <use xlink:href="#DejaVuSans-6c" transform="translate(229.296875 0)"/>
      <use xlink:href="#DejaVuSans-69" transform="translate(257.080078 0)"/>
      <use xlink:href="#DejaVuSans-74" transform="translate(284.863281 0)"/>
      <use xlink:href="#DejaVuSans-75" transform="translate(324.072266 0)"/>
      <use xlink:href="#DejaVuSans-64" transform="translate(387.451172 0)"/>
      <use xlink:href="#DejaVuSans-65" transform="translate(450.927734 0)"/>
     </g>
    </g>
   </g>
   <g id="line2d_27">
    <path d="M 289.062533 133.198125 
L 333.756294 35.781781 
L 333.843758 230.805108 
L 333.931221 230.614469 
L 423.318742 35.781781 
L 423.406206 230.805108 
L 423.493669 230.614469 
L 468.099967 133.388764 
L 468.099967 133.388764 
" clip-path="url(#pb9aaab560f)" style="fill: none; stroke: #000000; stroke-width: 1.5; stroke-linecap: square"/>
   </g>
   <g id="line2d_28">
    <path d="M 289.062533 133.198125 
L 290.199557 133.089174 
L 290.8118 132.80842 
L 291.424043 132.263415 
L 292.036287 131.392456 
L 292.735993 129.951627 
L 293.523163 127.752941 
L 294.48526 124.323248 
L 295.972136 118.001777 
L 297.808866 110.325351 
L 298.770963 107.168116 
L 299.558133 105.260679 
L 300.257839 104.113913 
L 300.870083 103.513713 
L 301.482326 103.23842 
L 302.094569 103.212052 
L 303.056666 103.436242 
L 304.018763 103.600445 
L 304.631006 103.47167 
L 305.155786 103.124254 
L 305.680566 102.503912 
L 306.292809 101.387313 
L 306.992516 99.559984 
L 307.779686 96.817873 
L 308.829246 92.218125 
L 312.327779 75.936204 
L 313.114949 73.702781 
L 313.727192 72.595842 
L 314.251972 72.098066 
L 314.689289 71.988497 
L 315.126605 72.132295 
L 315.651385 72.590759 
L 316.351092 73.556466 
L 318.187822 76.315841 
L 318.712602 76.661734 
L 319.062455 76.676686 
L 319.412308 76.486286 
L 319.849625 75.923474 
L 320.286942 74.966142 
L 320.811722 73.264358 
L 321.423965 70.503608 
L 322.211135 65.793856 
L 323.260695 57.89691 
L 325.797131 37.920423 
L 326.496838 34.357264 
L 326.934155 32.989731 
L 327.284008 32.458904 
L 327.546398 32.42135 
L 327.808788 32.713162 
L 328.158641 33.641906 
L 328.595958 35.713 
L 329.120738 39.588103 
L 329.732981 46.064439 
L 330.432688 56.005791 
L 331.307321 71.960214 
L 332.444344 97.476601 
L 334.543464 151.388299 
L 336.117804 188.970384 
L 337.167364 208.964379 
L 337.954534 220.331811 
L 338.654241 227.561073 
L 339.266484 231.635834 
L 339.703801 233.297574 
L 340.053654 233.915061 
L 340.316044 233.985383 
L 340.578434 233.738194 
L 340.928287 232.948517 
L 341.365604 231.294293 
L 341.977847 227.930723 
L 342.85248 221.598069 
L 345.913697 197.83349 
L 346.700867 193.835932 
L 347.31311 191.671241 
L 347.83789 190.472776 
L 348.275207 189.909964 
L 348.712523 189.705075 
L 349.062377 189.767161 
L 349.499693 190.080409 
L 350.111937 190.846508 
L 352.473446 194.207599 
L 352.910763 194.398327 
L 353.34808 194.34164 
L 353.785396 194.012152 
L 354.222713 193.39565 
L 354.747493 192.273675 
L 355.4472 190.159568 
L 356.321833 186.666793 
L 357.633783 180.306562 
L 359.557976 171.007304 
L 360.520073 167.384874 
L 361.307243 165.204913 
L 362.006949 163.892338 
L 362.619193 163.196351 
L 363.143973 162.889826 
L 363.756216 162.796462 
L 364.543386 162.935828 
L 365.855336 163.19758 
L 366.467579 163.075298 
L 366.992359 162.746918 
L 367.517139 162.166794 
L 368.129382 161.135571 
L 368.829089 159.471843 
L 369.616259 157.012946 
L 370.665819 152.955197 
L 374.164352 138.643309 
L 375.038985 136.237789 
L 375.826155 134.719027 
L 376.525862 133.862427 
L 377.138105 133.439516 
L 377.837812 133.234523 
L 379.062298 133.191857 
L 379.849468 133.062331 
L 380.461712 132.748421 
L 381.073955 132.160098 
L 381.686198 131.238927 
L 382.385905 129.737161 
L 383.173075 127.472616 
L 384.135171 123.97789 
L 385.709511 117.22802 
L 387.458778 110.005204 
L 388.420874 106.924407 
L 389.208044 105.089143 
L 389.907751 104.006073 
L 390.519994 103.456005 
L 391.132238 103.221471 
L 391.744481 103.22318 
L 392.968968 103.526592 
L 393.756137 103.58898 
L 394.280917 103.430721 
L 394.805697 103.040995 
L 395.330477 102.371185 
L 395.942721 101.191337 
L 396.642427 99.29018 
L 397.429597 96.471824 
L 398.479157 91.79806 
L 401.7153 76.546859 
L 402.50247 74.122575 
L 403.114714 72.854037 
L 403.639494 72.218403 
L 404.07681 72.000374 
L 404.514127 72.046312 
L 404.951444 72.326485 
L 405.563687 73.0342 
L 406.613247 74.714192 
L 407.575343 76.129845 
L 408.100123 76.585795 
L 408.53744 76.691175 
L 408.887293 76.554519 
L 409.237147 76.194163 
L 409.674463 75.398239 
L 410.199243 73.899884 
L 410.811487 71.376612 
L 411.511193 67.498954 
L 412.385826 61.365206 
L 413.960166 48.369781 
L 415.184653 39.029601 
L 415.88436 35.101957 
L 416.40914 33.203341 
L 416.758993 32.541541 
L 417.021383 32.398125 
L 417.283773 32.578262 
L 417.546163 33.098676 
L 417.896016 34.346548 
L 418.333333 36.833996 
L 418.858113 41.223243 
L 419.470356 48.299943 
L 420.257526 60.401257 
L 421.219623 79.309928 
L 422.444109 108.32196 
L 425.942642 194.436036 
L 426.904739 211.776769 
L 427.691909 222.397068 
L 428.391616 228.937999 
L 428.916395 232.049702 
L 429.353712 233.509796 
L 429.703565 233.9749 
L 429.965955 233.937346 
L 430.228345 233.588542 
L 430.578199 232.674169 
L 431.015515 230.883112 
L 431.627759 227.366649 
L 432.502392 220.898235 
L 435.388682 198.35786 
L 436.175852 194.21356 
L 436.875558 191.671241 
L 437.400338 190.472776 
L 437.837655 189.909964 
L 438.274972 189.705075 
L 438.624825 189.767161 
L 439.062142 190.080409 
L 439.674385 190.846508 
L 442.035895 194.207599 
L 442.473211 194.398327 
L 442.910528 194.34164 
L 443.347845 194.012152 
L 443.785161 193.39565 
L 444.309941 192.273675 
L 445.009648 190.159568 
L 445.884281 186.666793 
L 447.196231 180.306562 
L 449.120424 171.007304 
L 450.082521 167.384874 
L 450.869691 165.204913 
L 451.569398 163.892338 
L 452.181641 163.196351 
L 452.706421 162.889826 
L 453.318664 162.796462 
L 454.105834 162.935828 
L 455.417784 163.19758 
L 456.030027 163.075298 
L 456.554807 162.746918 
L 457.079587 162.166794 
L 457.691831 161.135571 
L 458.391537 159.471843 
L 459.178707 157.012946 
L 460.228267 152.955197 
L 463.7268 138.643309 
L 464.601433 136.237789 
L 465.388603 134.719027 
L 466.08831 133.862427 
L 466.700553 133.439516 
L 467.40026 133.234523 
L 468.099967 133.198175 
L 468.099967 133.198175 
" clip-path="url(#pb9aaab560f)" style="fill: none; stroke-dasharray: 5.55,2.4; stroke-dashoffset: 0; stroke: #1f77b4; stroke-width: 1.5"/>
   </g>
   <g id="patch_9">
    <path d="M 280.110662 244.078125 
L 280.110662 22.318125 
" style="fill: none; stroke: #000000; stroke-width: 0.8; stroke-linejoin: miter; stroke-linecap: square"/>
   </g>
   <g id="patch_10">
    <path d="M 477.051838 244.078125 
L 477.051838 22.318125 
" style="fill: none; stroke: #000000; stroke-width: 0.8; stroke-linejoin: miter; stroke-linecap: square"/>
   </g>
   <g id="patch_11">
    <path d="M 280.110662 244.078125 
L 477.051838 244.078125 
" style="fill: none; stroke: #000000; stroke-width: 0.8; stroke-linejoin: miter; stroke-linecap: square"/>
   </g>
   <g id="patch_12">
    <path d="M 280.110662 22.318125 
L 477.051838 22.318125 
" style="fill: none; stroke: #000000; stroke-width: 0.8; stroke-linejoin: miter; stroke-linecap: square"/>
   </g>
   <g id="text_30">
    <!-- Sawtooth vs Fourier (n=6) -->
    <g transform="translate(299.612813 16.318125) scale(0.12 -0.12)">
     <use xlink:href="#DejaVuSans-53"/>
     <use xlink:href="#DejaVuSans-61" transform="translate(63.476562 0)"/>
     <use xlink:href="#DejaVuSans-77" transform="translate(124.755859 0)"/>
     <use xlink:href="#DejaVuSans-74" transform="translate(206.542969 0)"/>
     <use xlink:href="#DejaVuSans-6f" transform="translate(245.751953 0)"/>
     <use xlink:href="#DejaVuSans-6f" transform="translate(306.933594 0)"/>
     <use xlink:href="#DejaVuSans-74" transform="translate(368.115234 0)"/>
     <use xlink:href="#DejaVuSans-68" transform="translate(407.324219 0)"/>
     <use xlink:href="#DejaVuSans-20" transform="translate(470.703125 0)"/>
     <use xlink:href="#DejaVuSans-76" transform="translate(502.490234 0)"/>
     <use xlink:href="#DejaVuSans-73" transform="translate(561.669922 0)"/>
     <use xlink:href="#DejaVuSans-20" transform="translate(613.769531 0)"/>
     <use xlink:href="#DejaVuSans-46" transform="translate(645.556641 0)"/>
     <use xlink:href="#DejaVuSans-6f" transform="translate(699.451172 0)"/>
     <use xlink:href="#DejaVuSans-75" transform="translate(760.632812 0)"/>
     <use xlink:href="#DejaVuSans-72" transform="translate(824.011719 0)"/>
     <use xlink:href="#DejaVuSans-69" transform="translate(865.125 0)"/>
     <use xlink:href="#DejaVuSans-65" transform="translate(892.908203 0)"/>
     <use xlink:href="#DejaVuSans-72" transform="translate(954.431641 0)"/>
     <use xlink:href="#DejaVuSans-20" transform="translate(995.544922 0)"/>
     <use xlink:href="#DejaVuSans-28" transform="translate(1027.332031 0)"/>
     <use xlink:href="#DejaVuSans-6e" transform="translate(1066.345703 0)"/>
     <use xlink:href="#DejaVuSans-3d" transform="translate(1129.724609 0)"/>
     <use xlink:href="#DejaVuSans-36" transform="translate(1213.513672 0)"/>
     <use xlink:href="#DejaVuSans-29" transform="translate(1277.136719 0)"/>
    </g>
   </g>
   <g id="legend_2">
    <g id="patch_13">
     <path d="M 339.046094 59.674375 
L 418.116406 59.674375 
Q 420.116406 59.674375 420.116406 57.674375 
L 420.116406 29.318125 
Q 420.116406 27.318125 418.116406 27.318125 
L 339.046094 27.318125 
Q 337.046094 27.318125 337.046094 29.318125 
L 337.046094 57.674375 
Q 337.046094 59.674375 339.046094 59.674375 
z
" style="fill: #ffffff; opacity: 0.8; stroke: #cccccc; stroke-linejoin: miter"/>
    </g>
    <g id="line2d_29">
     <path d="M 341.046094 35.416562 
L 351.046094 35.416562 
L 361.046094 35.416562 
" style="fill: none; stroke: #000000; stroke-width: 1.5; stroke-linecap: square"/>
    </g>
    <g id="text_31">
     <!-- Sawtooth -->
     <g transform="translate(369.046094 38.916562) scale(0.1 -0.1)">
      <use xlink:href="#DejaVuSans-53"/>
      <use xlink:href="#DejaVuSans-61" transform="translate(63.476562 0)"/>
      <use xlink:href="#DejaVuSans-77" transform="translate(124.755859 0)"/>
      <use xlink:href="#DejaVuSans-74" transform="translate(206.542969 0)"/>
      <use xlink:href="#DejaVuSans-6f" transform="translate(245.751953 0)"/>
      <use xlink:href="#DejaVuSans-6f" transform="translate(306.933594 0)"/>
      <use xlink:href="#DejaVuSans-74" transform="translate(368.115234 0)"/>
      <use xlink:href="#DejaVuSans-68" transform="translate(407.324219 0)"/>
     </g>
    </g>
    <g id="line2d_30">
     <path d="M 341.046094 50.094687 
L 351.046094 50.094687 
L 361.046094 50.094687 
" style="fill: none; stroke-dasharray: 5.55,2.4; stroke-dashoffset: 0; stroke: #1f77b4; stroke-width: 1.5"/>
    </g>
    <g id="text_32">
     <!-- Fourier -->
     <g transform="translate(369.046094 53.594687) scale(0.1 -0.1)">
      <use xlink:href="#DejaVuSans-46"/>
      <use xlink:href="#DejaVuSans-6f" transform="translate(53.894531 0)"/>
      <use xlink:href="#DejaVuSans-75" transform="translate(115.076172 0)"/>
      <use xlink:href="#DejaVuSans-72" transform="translate(178.455078 0)"/>
      <use xlink:href="#DejaVuSans-69" transform="translate(219.568359 0)"/>
      <use xlink:href="#DejaVuSans-65" transform="translate(247.351562 0)"/>
      <use xlink:href="#DejaVuSans-72" transform="translate(308.875 0)"/>
     </g>
    </g>
   </g>
  </g>
  <g id="axes_3">
   <g id="patch_14">
    <path d="M 516.440074 244.078125 
L 713.38125 244.078125 
L 713.38125 22.318125 
L 516.440074 22.318125 
z
" style="fill: #ffffff"/>
   </g>
   <g id="matplotlib.axis_5">
    <g id="xtick_11">
     <g id="line2d_31">
      <g>
       <use xlink:href="#m11a3cccdcb" x="525.391945" y="244.078125" style="stroke: #000000; stroke-width: 0.8"/>
      </g>
     </g>
     <g id="text_33">
      <!-- 0.0 -->
      <g transform="translate(517.440383 258.676562) scale(0.1 -0.1)">
       <use xlink:href="#DejaVuSans-30"/>
       <use xlink:href="#DejaVuSans-2e" transform="translate(63.623047 0)"/>
       <use xlink:href="#DejaVuSans-30" transform="translate(95.410156 0)"/>
      </g>
     </g>
    </g>
    <g id="xtick_12">
     <g id="line2d_32">
      <g>
       <use xlink:href="#m11a3cccdcb" x="570.173169" y="244.078125" style="stroke: #000000; stroke-width: 0.8"/>
      </g>
     </g>
     <g id="text_34">
      <!-- 0.5 -->
      <g transform="translate(562.221607 258.676562) scale(0.1 -0.1)">
       <use xlink:href="#DejaVuSans-30"/>
       <use xlink:href="#DejaVuSans-2e" transform="translate(63.623047 0)"/>
       <use xlink:href="#DejaVuSans-35" transform="translate(95.410156 0)"/>
      </g>
     </g>
    </g>
    <g id="xtick_13">
     <g id="line2d_33">
      <g>
       <use xlink:href="#m11a3cccdcb" x="614.954393" y="244.078125" style="stroke: #000000; stroke-width: 0.8"/>
      </g>
     </g>
     <g id="text_35">
      <!-- 1.0 -->
      <g transform="translate(607.002831 258.676562) scale(0.1 -0.1)">
       <use xlink:href="#DejaVuSans-31"/>
       <use xlink:href="#DejaVuSans-2e" transform="translate(63.623047 0)"/>
       <use xlink:href="#DejaVuSans-30" transform="translate(95.410156 0)"/>
      </g>
     </g>
    </g>
    <g id="xtick_14">
     <g id="line2d_34">
      <g>
       <use xlink:href="#m11a3cccdcb" x="659.735618" y="244.078125" style="stroke: #000000; stroke-width: 0.8"/>
      </g>
     </g>
     <g id="text_36">
      <!-- 1.5 -->
      <g transform="translate(651.784055 258.676562) scale(0.1 -0.1)">
       <use xlink:href="#DejaVuSans-31"/>
       <use xlink:href="#DejaVuSans-2e" transform="translate(63.623047 0)"/>
       <use xlink:href="#DejaVuSans-35" transform="translate(95.410156 0)"/>
      </g>
     </g>
    </g>
    <g id="xtick_15">
     <g id="line2d_35">
      <g>
       <use xlink:href="#m11a3cccdcb" x="704.516842" y="244.078125" style="stroke: #000000; stroke-width: 0.8"/>
      </g>
     </g>
     <g id="text_37">
      <!-- 2.0 -->
      <g transform="translate(696.565279 258.676562) scale(0.1 -0.1)">
       <use xlink:href="#DejaVuSans-32"/>
       <use xlink:href="#DejaVuSans-2e" transform="translate(63.623047 0)"/>
       <use xlink:href="#DejaVuSans-30" transform="translate(95.410156 0)"/>
      </g>
     </g>
    </g>
    <g id="text_38">
     <!-- Time [s] -->
     <g transform="translate(594.581756 272.354687) scale(0.1 -0.1)">
      <use xlink:href="#DejaVuSans-54"/>
      <use xlink:href="#DejaVuSans-69" transform="translate(57.958984 0)"/>
      <use xlink:href="#DejaVuSans-6d" transform="translate(85.742188 0)"/>
      <use xlink:href="#DejaVuSans-65" transform="translate(183.154297 0)"/>
      <use xlink:href="#DejaVuSans-20" transform="translate(244.677734 0)"/>
      <use xlink:href="#DejaVuSans-5b" transform="translate(276.464844 0)"/>
      <use xlink:href="#DejaVuSans-73" transform="translate(315.478516 0)"/>
      <use xlink:href="#DejaVuSans-5d" transform="translate(367.578125 0)"/>
     </g>
    </g>
   </g>
   <g id="matplotlib.axis_6">
    <g id="ytick_13">
     <g id="line2d_36">
      <g>
       <use xlink:href="#m503ebb10db" x="516.440074" y="226.765651" style="stroke: #000000; stroke-width: 0.8"/>
      </g>
     </g>
     <g id="text_39">
      <!-- 0.0 -->
      <g transform="translate(493.536949 230.56487) scale(0.1 -0.1)">
       <use xlink:href="#DejaVuSans-30"/>
       <use xlink:href="#DejaVuSans-2e" transform="translate(63.623047 0)"/>
       <use xlink:href="#DejaVuSans-30" transform="translate(95.410156 0)"/>
      </g>
     </g>
    </g>
    <g id="ytick_14">
     <g id="line2d_37">
      <g>
       <use xlink:href="#m503ebb10db" x="516.440074" y="189.338641" style="stroke: #000000; stroke-width: 0.8"/>
      </g>
     </g>
     <g id="text_40">
      <!-- 0.2 -->
      <g transform="translate(493.536949 193.137859) scale(0.1 -0.1)">
       <use xlink:href="#DejaVuSans-30"/>
       <use xlink:href="#DejaVuSans-2e" transform="translate(63.623047 0)"/>
       <use xlink:href="#DejaVuSans-32" transform="translate(95.410156 0)"/>
      </g>
     </g>
    </g>
    <g id="ytick_15">
     <g id="line2d_38">
      <g>
       <use xlink:href="#m503ebb10db" x="516.440074" y="151.91163" style="stroke: #000000; stroke-width: 0.8"/>
      </g>
     </g>
     <g id="text_41">
      <!-- 0.4 -->
      <g transform="translate(493.536949 155.710849) scale(0.1 -0.1)">
       <use xlink:href="#DejaVuSans-30"/>
       <use xlink:href="#DejaVuSans-2e" transform="translate(63.623047 0)"/>
       <use xlink:href="#DejaVuSans-34" transform="translate(95.410156 0)"/>
      </g>
     </g>
    </g>
    <g id="ytick_16">
     <g id="line2d_39">
      <g>
       <use xlink:href="#m503ebb10db" x="516.440074" y="114.48462" style="stroke: #000000; stroke-width: 0.8"/>
      </g>
     </g>
     <g id="text_42">
      <!-- 0.6 -->
      <g transform="translate(493.536949 118.283839) scale(0.1 -0.1)">
       <use xlink:href="#DejaVuSans-30"/>
       <use xlink:href="#DejaVuSans-2e" transform="translate(63.623047 0)"/>
       <use xlink:href="#DejaVuSans-36" transform="translate(95.410156 0)"/>
      </g>
     </g>
    </g>
    <g id="ytick_17">
     <g id="line2d_40">
      <g>
       <use xlink:href="#m503ebb10db" x="516.440074" y="77.057609" style="stroke: #000000; stroke-width: 0.8"/>
      </g>
     </g>
     <g id="text_43">
      <!-- 0.8 -->
      <g transform="translate(493.536949 80.856828) scale(0.1 -0.1)">
       <use xlink:href="#DejaVuSans-30"/>
       <use xlink:href="#DejaVuSans-2e" transform="translate(63.623047 0)"/>
       <use xlink:href="#DejaVuSans-38" transform="translate(95.410156 0)"/>
      </g>
     </g>
    </g>
    <g id="ytick_18">
     <g id="line2d_41">
      <g>
       <use xlink:href="#m503ebb10db" x="516.440074" y="39.630599" style="stroke: #000000; stroke-width: 0.8"/>
      </g>
     </g>
     <g id="text_44">
      <!-- 1.0 -->
      <g transform="translate(493.536949 43.429818) scale(0.1 -0.1)">
       <use xlink:href="#DejaVuSans-31"/>
       <use xlink:href="#DejaVuSans-2e" transform="translate(63.623047 0)"/>
       <use xlink:href="#DejaVuSans-30" transform="translate(95.410156 0)"/>
      </g>
     </g>
    </g>
    <g id="text_45">
     <!-- Amplitude -->
     <g transform="translate(487.457261 158.820781) rotate(-90) scale(0.1 -0.1)">
      <use xlink:href="#DejaVuSans-41"/>
      <use xlink:href="#DejaVuSans-6d" transform="translate(68.408203 0)"/>
      <use xlink:href="#DejaVuSans-70" transform="translate(165.820312 0)"/>
      <use xlink:href="#DejaVuSans-6c" transform="translate(229.296875 0)"/>
      <use xlink:href="#DejaVuSans-69" transform="translate(257.080078 0)"/>
      <use xlink:href="#DejaVuSans-74" transform="translate(284.863281 0)"/>
      <use xlink:href="#DejaVuSans-75" transform="translate(324.072266 0)"/>
      <use xlink:href="#DejaVuSans-64" transform="translate(387.451172 0)"/>
      <use xlink:href="#DejaVuSans-65" transform="translate(450.927734 0)"/>
     </g>
    </g>
   </g>
   <g id="line2d_42">
    <path d="M 525.391945 133.198125 
L 570.085706 39.813348 
L 570.173169 226.765651 
L 570.260633 226.582902 
L 659.648154 39.813348 
L 659.735618 226.765651 
L 659.823081 226.582902 
L 704.429378 133.380874 
L 704.429378 133.380874 
" clip-path="url(#pd5c227d519)" style="fill: none; stroke: #000000; stroke-width: 1.5; stroke-linecap: square"/>
   </g>
   <g id="line2d_43">
    <path d="M 525.391945 133.198125 
L 526.791358 127.755118 
L 527.578528 125.512504 
L 528.190772 124.348604 
L 528.715552 123.748507 
L 529.240332 123.455403 
L 529.852575 123.372055 
L 531.077062 123.269404 
L 531.601842 122.931761 
L 532.126621 122.269954 
L 532.651401 121.228492 
L 533.263645 119.522639 
L 534.138278 116.312424 
L 536.674715 106.401587 
L 537.374421 104.780714 
L 537.899201 104.046887 
L 538.423981 103.68941 
L 538.948761 103.624952 
L 539.823394 103.830865 
L 540.523101 103.88718 
L 540.960418 103.708108 
L 541.397734 103.282781 
L 541.922514 102.383921 
L 542.534758 100.761965 
L 543.234464 98.20877 
L 544.371487 93.053216 
L 545.683437 87.332083 
L 546.383144 85.153462 
L 546.907924 84.098697 
L 547.345241 83.61499 
L 547.782557 83.46446 
L 548.219874 83.592137 
L 548.832117 84.081739 
L 549.881677 84.99707 
L 550.318994 85.103102 
L 550.668847 84.969704 
L 551.0187 84.599736 
L 551.456017 83.764555 
L 551.980797 82.189672 
L 552.59304 79.606143 
L 553.555137 74.367706 
L 555.129477 65.717057 
L 555.74172 63.446153 
L 556.179037 62.443185 
L 556.52889 62.046457 
L 556.79128 61.986314 
L 557.05367 62.121684 
L 557.403523 62.58146 
L 557.928303 63.762638 
L 559.93996 68.99066 
L 560.20235 69.127555 
L 560.46474 69.017565 
L 560.72713 68.63403 
L 561.076983 67.663716 
L 561.5143 65.681277 
L 562.03908 62.194765 
L 562.738786 55.944823 
L 564.92537 34.873721 
L 565.362686 32.887592 
L 565.625076 32.419179 
L 565.800003 32.448284 
L 565.97493 32.770324 
L 566.23732 33.835019 
L 566.587173 36.403683 
L 567.024489 41.553411 
L 567.549269 50.633446 
L 568.248976 67.457567 
L 569.123609 94.837477 
L 571.047803 165.445901 
L 572.097363 198.938683 
L 572.884532 217.494097 
L 573.496776 227.165845 
L 574.021556 232.0448 
L 574.371409 233.625926 
L 574.633799 233.998125 
L 574.808726 233.886959 
L 575.071116 233.225244 
L 575.420969 231.522529 
L 575.945749 227.562483 
L 576.820382 218.751969 
L 578.132332 205.610963 
L 578.832039 200.714973 
L 579.356819 198.43926 
L 579.794135 197.475003 
L 580.056525 197.276483 
L 580.318915 197.334417 
L 580.668769 197.757045 
L 581.106085 198.717934 
L 581.980719 201.351827 
L 582.767889 203.478779 
L 583.205205 204.188218 
L 583.555059 204.409936 
L 583.817449 204.349793 
L 584.167302 203.953065 
L 584.604618 202.950097 
L 585.129398 201.058938 
L 585.829105 197.615445 
L 588.365542 184.206578 
L 588.977785 182.430162 
L 589.502565 181.579968 
L 589.939882 181.306258 
L 590.289735 181.325433 
L 590.727051 181.571946 
L 592.563781 182.93179 
L 592.913635 182.836661 
L 593.263488 182.533358 
L 593.700805 181.835314 
L 594.225585 180.523487 
L 594.925291 178.051405 
L 595.974851 173.343034 
L 597.461728 166.826729 
L 598.161434 164.631996 
L 598.773678 163.363664 
L 599.298458 162.751716 
L 599.735774 162.5281 
L 600.260554 162.510537 
L 601.922358 162.70684 
L 602.359674 162.433363 
L 602.796991 161.90527 
L 603.321771 160.896844 
L 603.934014 159.203936 
L 604.808647 155.989213 
L 607.257621 146.334438 
L 607.957327 144.597825 
L 608.56957 143.645456 
L 609.09435 143.208487 
L 609.61913 143.036773 
L 611.543324 142.715735 
L 612.068104 142.17199 
L 612.592884 141.269469 
L 613.205127 139.736055 
L 613.992297 137.083995 
L 615.566637 130.674748 
L 616.616197 126.919937 
L 617.315903 125.126781 
L 617.928147 124.109981 
L 618.452927 123.620753 
L 618.977707 123.410236 
L 619.764876 123.37915 
L 620.552046 123.300284 
L 621.076826 123.008436 
L 621.601606 122.405658 
L 622.126386 121.429453 
L 622.73863 119.797179 
L 623.5258 117.011585 
L 626.412089 105.928031 
L 627.024333 104.630086 
L 627.549113 103.962887 
L 628.073893 103.661173 
L 628.598673 103.634672 
L 630.347939 103.805989 
L 630.785256 103.485914 
L 631.222573 102.889212 
L 631.747352 101.764254 
L 632.359596 99.884436 
L 633.146766 96.71103 
L 635.595739 86.139553 
L 636.207982 84.560936 
L 636.732762 83.76636 
L 637.170079 83.487593 
L 637.607395 83.512308 
L 638.132175 83.841404 
L 639.706515 85.092793 
L 640.056369 85.063801 
L 640.406222 84.816282 
L 640.843539 84.150212 
L 641.280855 83.055048 
L 641.893099 80.804228 
L 642.680269 76.875475 
L 644.954315 64.630232 
L 645.566558 62.777876 
L 646.003875 62.111461 
L 646.353728 61.986314 
L 646.616118 62.121684 
L 646.965972 62.58146 
L 647.490752 63.762638 
L 649.502408 68.99066 
L 649.764798 69.127555 
L 650.027188 69.017565 
L 650.289578 68.63403 
L 650.639431 67.663716 
L 651.076748 65.681277 
L 651.601528 62.194765 
L 652.301235 55.944823 
L 654.487818 34.873721 
L 654.925134 32.887592 
L 655.187524 32.419179 
L 655.362451 32.448284 
L 655.537378 32.770324 
L 655.799768 33.835019 
L 656.149621 36.403683 
L 656.586938 41.553411 
L 657.111718 50.633446 
L 657.811424 67.457567 
L 658.686058 94.837477 
L 660.610251 165.445901 
L 661.659811 198.938683 
L 662.446981 217.494097 
L 663.059224 227.165845 
L 663.584004 232.0448 
L 663.933857 233.625926 
L 664.196247 233.998125 
L 664.371174 233.886959 
L 664.633564 233.225244 
L 664.983417 231.522529 
L 665.508197 227.562483 
L 666.382831 218.751969 
L 667.69478 205.610963 
L 668.394487 200.714973 
L 668.919267 198.43926 
L 669.356584 197.475003 
L 669.618974 197.276483 
L 669.881364 197.334417 
L 670.231217 197.757045 
L 670.668534 198.717934 
L 671.543167 201.351827 
L 672.330337 203.478779 
L 672.767653 204.188218 
L 673.117507 204.409936 
L 673.379897 204.349793 
L 673.72975 203.953065 
L 674.167067 202.950097 
L 674.691847 201.058938 
L 675.391553 197.615445 
L 677.92799 184.206578 
L 678.540233 182.430162 
L 679.065013 181.579968 
L 679.50233 181.306258 
L 679.852183 181.325433 
L 680.2895 181.571946 
L 682.12623 182.93179 
L 682.476083 182.836661 
L 682.825936 182.533358 
L 683.263253 181.835314 
L 683.788033 180.523487 
L 684.487739 178.051405 
L 685.537299 173.343034 
L 687.024176 166.826729 
L 687.723883 164.631996 
L 688.336126 163.363664 
L 688.860906 162.751716 
L 689.298223 162.5281 
L 689.823003 162.510537 
L 691.484806 162.70684 
L 691.922122 162.433363 
L 692.359439 161.90527 
L 692.884219 160.896844 
L 693.496462 159.203936 
L 694.371096 155.989213 
L 696.820069 146.334438 
L 697.519775 144.597825 
L 698.132019 143.645456 
L 698.656799 143.208487 
L 699.181579 143.036773 
L 701.105772 142.715735 
L 701.630552 142.17199 
L 702.155332 141.269469 
L 702.767575 139.736055 
L 703.554745 137.083995 
L 704.429378 133.56352 
L 704.429378 133.56352 
" clip-path="url(#pd5c227d519)" style="fill: none; stroke-dasharray: 5.55,2.4; stroke-dashoffset: 0; stroke: #1f77b4; stroke-width: 1.5"/>
   </g>
   <g id="patch_15">
    <path d="M 516.440074 244.078125 
L 516.440074 22.318125 
" style="fill: none; stroke: #000000; stroke-width: 0.8; stroke-linejoin: miter; stroke-linecap: square"/>
   </g>
   <g id="patch_16">
    <path d="M 713.38125 244.078125 
L 713.38125 22.318125 
" style="fill: none; stroke: #000000; stroke-width: 0.8; stroke-linejoin: miter; stroke-linecap: square"/>
   </g>
   <g id="patch_17">
    <path d="M 516.440074 244.078125 
L 713.38125 244.078125 
" style="fill: none; stroke: #000000; stroke-width: 0.8; stroke-linejoin: miter; stroke-linecap: square"/>
   </g>
   <g id="patch_18">
    <path d="M 516.440074 22.318125 
L 713.38125 22.318125 
" style="fill: none; stroke: #000000; stroke-width: 0.8; stroke-linejoin: miter; stroke-linecap: square"/>
   </g>
   <g id="text_46">
    <!-- Sawtooth vs Fourier (n=9) -->
    <g transform="translate(535.942224 16.318125) scale(0.12 -0.12)">
     <defs>
      <path id="DejaVuSans-39" d="M 703 97 
L 703 672 
Q 941 559 1184 500 
Q 1428 441 1663 441 
Q 2288 441 2617 861 
Q 2947 1281 2994 2138 
Q 2813 1869 2534 1725 
Q 2256 1581 1919 1581 
Q 1219 1581 811 2004 
Q 403 2428 403 3163 
Q 403 3881 828 4315 
Q 1253 4750 1959 4750 
Q 2769 4750 3195 4129 
Q 3622 3509 3622 2328 
Q 3622 1225 3098 567 
Q 2575 -91 1691 -91 
Q 1453 -91 1209 -44 
Q 966 3 703 97 
z
M 1959 2075 
Q 2384 2075 2632 2365 
Q 2881 2656 2881 3163 
Q 2881 3666 2632 3958 
Q 2384 4250 1959 4250 
Q 1534 4250 1286 3958 
Q 1038 3666 1038 3163 
Q 1038 2656 1286 2365 
Q 1534 2075 1959 2075 
z
" transform="scale(0.015625)"/>
     </defs>
     <use xlink:href="#DejaVuSans-53"/>
     <use xlink:href="#DejaVuSans-61" transform="translate(63.476562 0)"/>
     <use xlink:href="#DejaVuSans-77" transform="translate(124.755859 0)"/>
     <use xlink:href="#DejaVuSans-74" transform="translate(206.542969 0)"/>
     <use xlink:href="#DejaVuSans-6f" transform="translate(245.751953 0)"/>
     <use xlink:href="#DejaVuSans-6f" transform="translate(306.933594 0)"/>
     <use xlink:href="#DejaVuSans-74" transform="translate(368.115234 0)"/>
     <use xlink:href="#DejaVuSans-68" transform="translate(407.324219 0)"/>
     <use xlink:href="#DejaVuSans-20" transform="translate(470.703125 0)"/>
     <use xlink:href="#DejaVuSans-76" transform="translate(502.490234 0)"/>
     <use xlink:href="#DejaVuSans-73" transform="translate(561.669922 0)"/>
     <use xlink:href="#DejaVuSans-20" transform="translate(613.769531 0)"/>
     <use xlink:href="#DejaVuSans-46" transform="translate(645.556641 0)"/>
     <use xlink:href="#DejaVuSans-6f" transform="translate(699.451172 0)"/>
     <use xlink:href="#DejaVuSans-75" transform="translate(760.632812 0)"/>
     <use xlink:href="#DejaVuSans-72" transform="translate(824.011719 0)"/>
     <use xlink:href="#DejaVuSans-69" transform="translate(865.125 0)"/>
     <use xlink:href="#DejaVuSans-65" transform="translate(892.908203 0)"/>
     <use xlink:href="#DejaVuSans-72" transform="translate(954.431641 0)"/>
     <use xlink:href="#DejaVuSans-20" transform="translate(995.544922 0)"/>
     <use xlink:href="#DejaVuSans-28" transform="translate(1027.332031 0)"/>
     <use xlink:href="#DejaVuSans-6e" transform="translate(1066.345703 0)"/>
     <use xlink:href="#DejaVuSans-3d" transform="translate(1129.724609 0)"/>
     <use xlink:href="#DejaVuSans-39" transform="translate(1213.513672 0)"/>
     <use xlink:href="#DejaVuSans-29" transform="translate(1277.136719 0)"/>
    </g>
   </g>
   <g id="legend_3">
    <g id="patch_19">
     <path d="M 575.375506 59.674375 
L 654.445818 59.674375 
Q 656.445818 59.674375 656.445818 57.674375 
L 656.445818 29.318125 
Q 656.445818 27.318125 654.445818 27.318125 
L 575.375506 27.318125 
Q 573.375506 27.318125 573.375506 29.318125 
L 573.375506 57.674375 
Q 573.375506 59.674375 575.375506 59.674375 
z
" style="fill: #ffffff; opacity: 0.8; stroke: #cccccc; stroke-linejoin: miter"/>
    </g>
    <g id="line2d_44">
     <path d="M 577.375506 35.416562 
L 587.375506 35.416562 
L 597.375506 35.416562 
" style="fill: none; stroke: #000000; stroke-width: 1.5; stroke-linecap: square"/>
    </g>
    <g id="text_47">
     <!-- Sawtooth -->
     <g transform="translate(605.375506 38.916562) scale(0.1 -0.1)">
      <use xlink:href="#DejaVuSans-53"/>
      <use xlink:href="#DejaVuSans-61" transform="translate(63.476562 0)"/>
      <use xlink:href="#DejaVuSans-77" transform="translate(124.755859 0)"/>
      <use xlink:href="#DejaVuSans-74" transform="translate(206.542969 0)"/>
      <use xlink:href="#DejaVuSans-6f" transform="translate(245.751953 0)"/>
      <use xlink:href="#DejaVuSans-6f" transform="translate(306.933594 0)"/>
      <use xlink:href="#DejaVuSans-74" transform="translate(368.115234 0)"/>
      <use xlink:href="#DejaVuSans-68" transform="translate(407.324219 0)"/>
     </g>
    </g>
    <g id="line2d_45">
     <path d="M 577.375506 50.094687 
L 587.375506 50.094687 
L 597.375506 50.094687 
" style="fill: none; stroke-dasharray: 5.55,2.4; stroke-dashoffset: 0; stroke: #1f77b4; stroke-width: 1.5"/>
    </g>
    <g id="text_48">
     <!-- Fourier -->
     <g transform="translate(605.375506 53.594687) scale(0.1 -0.1)">
      <use xlink:href="#DejaVuSans-46"/>
      <use xlink:href="#DejaVuSans-6f" transform="translate(53.894531 0)"/>
      <use xlink:href="#DejaVuSans-75" transform="translate(115.076172 0)"/>
      <use xlink:href="#DejaVuSans-72" transform="translate(178.455078 0)"/>
      <use xlink:href="#DejaVuSans-69" transform="translate(219.568359 0)"/>
      <use xlink:href="#DejaVuSans-65" transform="translate(247.351562 0)"/>
      <use xlink:href="#DejaVuSans-72" transform="translate(308.875 0)"/>
     </g>
    </g>
   </g>
  </g>
 </g>
 <defs>
  <clipPath id="p4b46f69fc1">
   <rect x="43.78125" y="22.318125" width="196.941176" height="221.76"/>
  </clipPath>
  <clipPath id="pb9aaab560f">
   <rect x="280.110662" y="22.318125" width="196.941176" height="221.76"/>
  </clipPath>
  <clipPath id="pd5c227d519">
   <rect x="516.440074" y="22.318125" width="196.941176" height="221.76"/>
  </clipPath>
 </defs>
</svg>
