<?xml version="1.0" encoding="utf-8" standalone="no"?>
<!DOCTYPE svg PUBLIC "-//W3C//DTD SVG 1.1//EN"
  "http://www.w3.org/Graphics/SVG/1.1/DTD/svg11.dtd">
<svg xmlns:xlink="http://www.w3.org/1999/xlink" width="413.403125pt" height="329.857625pt" viewBox="0 0 413.403125 329.857625" xmlns="http://www.w3.org/2000/svg" version="1.1">
 <metadata>
  <rdf:RDF xmlns:dc="http://purl.org/dc/elements/1.1/" xmlns:cc="http://creativecommons.org/ns#" xmlns:rdf="http://www.w3.org/1999/02/22-rdf-syntax-ns#">
   <cc:Work>
    <dc:type rdf:resource="http://purl.org/dc/dcmitype/StillImage"/>
    <dc:date>2026-01-12T12:26:11.792983</dc:date>
    <dc:format>image/svg+xml</dc:format>
    <dc:creator>
     <cc:Agent>
      <dc:title>Matplotlib v3.10.8, https://matplotlib.org/</dc:title>
     </cc:Agent>
    </dc:creator>
   </cc:Work>
  </rdf:RDF>
 </metadata>
 <defs>
  <style type="text/css">*{stroke-linejoin: round; stroke-linecap: butt}</style>
 </defs>
 <g id="figure_1">
  <g id="patch_1">
   <path d="M 0 329.857625 
L 413.403125 329.857625 
L 413.403125 0 
L 0 0 
z
" style="fill: #ffffff"/>
  </g>
  <g id="axes_1">
   <g id="patch_2">
    <path d="M 49.083125 288.430125 
L 406.203125 288.430125 
L 406.203125 22.318125 
L 49.083125 22.318125 
z
" style="fill: #ffffff"/>
   </g>
   <g id="matplotlib.axis_1">
    <g id="xtick_1">
     <g id="line2d_1">
      <path d="M 84.795125 288.430125 
L 84.795125 22.318125 
" clip-path="url(#p61cf842ea3)" style="fill: none; stroke-dasharray: 2.96,1.28; stroke-dashoffset: 0; stroke: #b0b0b0; stroke-opacity: 0.6; stroke-width: 0.8"/>
     </g>
     <g id="line2d_2">
      <defs>
       <path id="m1a53b00f30" d="M 0 0 
L 0 3.5 
" style="stroke: #000000; stroke-width: 0.8"/>
      </defs>
      <g>
       <use xlink:href="#m1a53b00f30" x="84.795125" y="288.430125" style="stroke: #000000; stroke-width: 0.8"/>
      </g>
     </g>
     <g id="text_1">
      <!-- −4 -->
      <g transform="translate(77.424031 303.028562) scale(0.1 -0.1)">
       <defs>
        <path id="DejaVuSans-2212" d="M 678 2272 
L 4684 2272 
L 4684 1741 
L 678 1741 
L 678 2272 
z
" transform="scale(0.015625)"/>
        <path id="DejaVuSans-34" d="M 2419 4116 
L 825 1625 
L 2419 1625 
L 2419 4116 
z
M 2253 4666 
L 3047 4666 
L 3047 1625 
L 3713 1625 
L 3713 1100 
L 3047 1100 
L 3047 0 
L 2419 0 
L 2419 1100 
L 313 1100 
L 313 1709 
L 2253 4666 
z
" transform="scale(0.015625)"/>
       </defs>
       <use xlink:href="#DejaVuSans-2212"/>
       <use xlink:href="#DejaVuSans-34" transform="translate(83.789062 0)"/>
      </g>
     </g>
    </g>
    <g id="xtick_2">
     <g id="line2d_3">
      <path d="M 156.219125 288.430125 
L 156.219125 22.318125 
" clip-path="url(#p61cf842ea3)" style="fill: none; stroke-dasharray: 2.96,1.28; stroke-dashoffset: 0; stroke: #b0b0b0; stroke-opacity: 0.6; stroke-width: 0.8"/>
     </g>
     <g id="line2d_4">
      <g>
       <use xlink:href="#m1a53b00f30" x="156.219125" y="288.430125" style="stroke: #000000; stroke-width: 0.8"/>
      </g>
     </g>
     <g id="text_2">
      <!-- −2 -->
      <g transform="translate(148.848031 303.028562) scale(0.1 -0.1)">
       <defs>
        <path id="DejaVuSans-32" d="M 1228 531 
L 3431 531 
L 3431 0 
L 469 0 
L 469 531 
Q 828 903 1448 1529 
Q 2069 2156 2228 2338 
Q 2531 2678 2651 2914 
Q 2772 3150 2772 3378 
Q 2772 3750 2511 3984 
Q 2250 4219 1831 4219 
Q 1534 4219 1204 4116 
Q 875 4013 500 3803 
L 500 4441 
Q 881 4594 1212 4672 
Q 1544 4750 1819 4750 
Q 2544 4750 2975 4387 
Q 3406 4025 3406 3419 
Q 3406 3131 3298 2873 
Q 3191 2616 2906 2266 
Q 2828 2175 2409 1742 
Q 1991 1309 1228 531 
z
" transform="scale(0.015625)"/>
       </defs>
       <use xlink:href="#DejaVuSans-2212"/>
       <use xlink:href="#DejaVuSans-32" transform="translate(83.789062 0)"/>
      </g>
     </g>
    </g>
    <g id="xtick_3">
     <g id="line2d_5">
      <path d="M 227.643125 288.430125 
L 227.643125 22.318125 
" clip-path="url(#p61cf842ea3)" style="fill: none; stroke-dasharray: 2.96,1.28; stroke-dashoffset: 0; stroke: #b0b0b0; stroke-opacity: 0.6; stroke-width: 0.8"/>
     </g>
     <g id="line2d_6">
      <g>
       <use xlink:href="#m1a53b00f30" x="227.643125" y="288.430125" style="stroke: #000000; stroke-width: 0.8"/>
      </g>
     </g>
     <g id="text_3">
      <!-- 0 -->
      <g transform="translate(224.461875 303.028562) scale(0.1 -0.1)">
       <defs>
        <path id="DejaVuSans-30" d="M 2034 4250 
Q 1547 4250 1301 3770 
Q 1056 3291 1056 2328 
Q 1056 1369 1301 889 
Q 1547 409 2034 409 
Q 2525 409 2770 889 
Q 3016 1369 3016 2328 
Q 3016 3291 2770 3770 
Q 2525 4250 2034 4250 
z
M 2034 4750 
Q 2819 4750 3233 4129 
Q 3647 3509 3647 2328 
Q 3647 1150 3233 529 
Q 2819 -91 2034 -91 
Q 1250 -91 836 529 
Q 422 1150 422 2328 
Q 422 3509 836 4129 
Q 1250 4750 2034 4750 
z
" transform="scale(0.015625)"/>
       </defs>
       <use xlink:href="#DejaVuSans-30"/>
      </g>
     </g>
    </g>
    <g id="xtick_4">
     <g id="line2d_7">
      <path d="M 299.067125 288.430125 
L 299.067125 22.318125 
" clip-path="url(#p61cf842ea3)" style="fill: none; stroke-dasharray: 2.96,1.28; stroke-dashoffset: 0; stroke: #b0b0b0; stroke-opacity: 0.6; stroke-width: 0.8"/>
     </g>
     <g id="line2d_8">
      <g>
       <use xlink:href="#m1a53b00f30" x="299.067125" y="288.430125" style="stroke: #000000; stroke-width: 0.8"/>
      </g>
     </g>
     <g id="text_4">
      <!-- 2 -->
      <g transform="translate(295.885875 303.028562) scale(0.1 -0.1)">
       <use xlink:href="#DejaVuSans-32"/>
      </g>
     </g>
    </g>
    <g id="xtick_5">
     <g id="line2d_9">
      <path d="M 370.491125 288.430125 
L 370.491125 22.318125 
" clip-path="url(#p61cf842ea3)" style="fill: none; stroke-dasharray: 2.96,1.28; stroke-dashoffset: 0; stroke: #b0b0b0; stroke-opacity: 0.6; stroke-width: 0.8"/>
     </g>
     <g id="line2d_10">
      <g>
       <use xlink:href="#m1a53b00f30" x="370.491125" y="288.430125" style="stroke: #000000; stroke-width: 0.8"/>
      </g>
     </g>
     <g id="text_5">
      <!-- 4 -->
      <g transform="translate(367.309875 303.028562) scale(0.1 -0.1)">
       <use xlink:href="#DejaVuSans-34"/>
      </g>
     </g>
    </g>
    <g id="text_6">
     <!-- $x$ -->
     <g transform="translate(223.443125 319.746062) scale(0.14 -0.14)">
      <defs>
       <path id="DejaVuSans-Oblique-78" d="M 3841 3500 
L 2234 1784 
L 3219 0 
L 2559 0 
L 1819 1388 
L 531 0 
L -166 0 
L 1556 1844 
L 641 3500 
L 1300 3500 
L 1972 2234 
L 3144 3500 
L 3841 3500 
z
" transform="scale(0.015625)"/>
      </defs>
      <use xlink:href="#DejaVuSans-Oblique-78" transform="translate(0 0.3125)"/>
     </g>
    </g>
   </g>
   <g id="matplotlib.axis_2">
    <g id="ytick_1">
     <g id="line2d_11">
      <path d="M 49.083125 288.430125 
L 406.203125 288.430125 
" clip-path="url(#p61cf842ea3)" style="fill: none; stroke-dasharray: 2.96,1.28; stroke-dashoffset: 0; stroke: #b0b0b0; stroke-opacity: 0.6; stroke-width: 0.8"/>
     </g>
     <g id="line2d_12">
      <defs>
       <path id="m2ab1874c82" d="M 0 0 
L -3.5 0 
" style="stroke: #000000; stroke-width: 0.8"/>
      </defs>
      <g>
       <use xlink:href="#m2ab1874c82" x="49.083125" y="288.430125" style="stroke: #000000; stroke-width: 0.8"/>
      </g>
     </g>
     <g id="text_7">
      <!-- 0.0 -->
      <g transform="translate(26.18 292.229344) scale(0.1 -0.1)">
       <defs>
        <path id="DejaVuSans-2e" d="M 684 794 
L 1344 794 
L 1344 0 
L 684 0 
L 684 794 
z
" transform="scale(0.015625)"/>
       </defs>
       <use xlink:href="#DejaVuSans-30"/>
       <use xlink:href="#DejaVuSans-2e" transform="translate(63.623047 0)"/>
       <use xlink:href="#DejaVuSans-30" transform="translate(95.410156 0)"/>
      </g>
     </g>
    </g>
    <g id="ytick_2">
     <g id="line2d_13">
      <path d="M 49.083125 235.207725 
L 406.203125 235.207725 
" clip-path="url(#p61cf842ea3)" style="fill: none; stroke-dasharray: 2.96,1.28; stroke-dashoffset: 0; stroke: #b0b0b0; stroke-opacity: 0.6; stroke-width: 0.8"/>
     </g>
     <g id="line2d_14">
      <g>
       <use xlink:href="#m2ab1874c82" x="49.083125" y="235.207725" style="stroke: #000000; stroke-width: 0.8"/>
      </g>
     </g>
     <g id="text_8">
      <!-- 0.2 -->
      <g transform="translate(26.18 239.006944) scale(0.1 -0.1)">
       <use xlink:href="#DejaVuSans-30"/>
       <use xlink:href="#DejaVuSans-2e" transform="translate(63.623047 0)"/>
       <use xlink:href="#DejaVuSans-32" transform="translate(95.410156 0)"/>
      </g>
     </g>
    </g>
    <g id="ytick_3">
     <g id="line2d_15">
      <path d="M 49.083125 181.985325 
L 406.203125 181.985325 
" clip-path="url(#p61cf842ea3)" style="fill: none; stroke-dasharray: 2.96,1.28; stroke-dashoffset: 0; stroke: #b0b0b0; stroke-opacity: 0.6; stroke-width: 0.8"/>
     </g>
     <g id="line2d_16">
      <g>
       <use xlink:href="#m2ab1874c82" x="49.083125" y="181.985325" style="stroke: #000000; stroke-width: 0.8"/>
      </g>
     </g>
     <g id="text_9">
      <!-- 0.4 -->
      <g transform="translate(26.18 185.784544) scale(0.1 -0.1)">
       <use xlink:href="#DejaVuSans-30"/>
       <use xlink:href="#DejaVuSans-2e" transform="translate(63.623047 0)"/>
       <use xlink:href="#DejaVuSans-34" transform="translate(95.410156 0)"/>
      </g>
     </g>
    </g>
    <g id="ytick_4">
     <g id="line2d_17">
      <path d="M 49.083125 128.762925 
L 406.203125 128.762925 
" clip-path="url(#p61cf842ea3)" style="fill: none; stroke-dasharray: 2.96,1.28; stroke-dashoffset: 0; stroke: #b0b0b0; stroke-opacity: 0.6; stroke-width: 0.8"/>
     </g>
     <g id="line2d_18">
      <g>
       <use xlink:href="#m2ab1874c82" x="49.083125" y="128.762925" style="stroke: #000000; stroke-width: 0.8"/>
      </g>
     </g>
     <g id="text_10">
      <!-- 0.6 -->
      <g transform="translate(26.18 132.562144) scale(0.1 -0.1)">
       <defs>
        <path id="DejaVuSans-36" d="M 2113 2584 
Q 1688 2584 1439 2293 
Q 1191 2003 1191 1497 
Q 1191 994 1439 701 
Q 1688 409 2113 409 
Q 2538 409 2786 701 
Q 3034 994 3034 1497 
Q 3034 2003 2786 2293 
Q 2538 2584 2113 2584 
z
M 3366 4563 
L 3366 3988 
Q 3128 4100 2886 4159 
Q 2644 4219 2406 4219 
Q 1781 4219 1451 3797 
Q 1122 3375 1075 2522 
Q 1259 2794 1537 2939 
Q 1816 3084 2150 3084 
Q 2853 3084 3261 2657 
Q 3669 2231 3669 1497 
Q 3669 778 3244 343 
Q 2819 -91 2113 -91 
Q 1303 -91 875 529 
Q 447 1150 447 2328 
Q 447 3434 972 4092 
Q 1497 4750 2381 4750 
Q 2619 4750 2861 4703 
Q 3103 4656 3366 4563 
z
" transform="scale(0.015625)"/>
       </defs>
       <use xlink:href="#DejaVuSans-30"/>
       <use xlink:href="#DejaVuSans-2e" transform="translate(63.623047 0)"/>
       <use xlink:href="#DejaVuSans-36" transform="translate(95.410156 0)"/>
      </g>
     </g>
    </g>
    <g id="ytick_5">
     <g id="line2d_19">
      <path d="M 49.083125 75.540525 
L 406.203125 75.540525 
" clip-path="url(#p61cf842ea3)" style="fill: none; stroke-dasharray: 2.96,1.28; stroke-dashoffset: 0; stroke: #b0b0b0; stroke-opacity: 0.6; stroke-width: 0.8"/>
     </g>
     <g id="line2d_20">
      <g>
       <use xlink:href="#m2ab1874c82" x="49.083125" y="75.540525" style="stroke: #000000; stroke-width: 0.8"/>
      </g>
     </g>
     <g id="text_11">
      <!-- 0.8 -->
      <g transform="translate(26.18 79.339744) scale(0.1 -0.1)">
       <defs>
        <path id="DejaVuSans-38" d="M 2034 2216 
Q 1584 2216 1326 1975 
Q 1069 1734 1069 1313 
Q 1069 891 1326 650 
Q 1584 409 2034 409 
Q 2484 409 2743 651 
Q 3003 894 3003 1313 
Q 3003 1734 2745 1975 
Q 2488 2216 2034 2216 
z
M 1403 2484 
Q 997 2584 770 2862 
Q 544 3141 544 3541 
Q 544 4100 942 4425 
Q 1341 4750 2034 4750 
Q 2731 4750 3128 4425 
Q 3525 4100 3525 3541 
Q 3525 3141 3298 2862 
Q 3072 2584 2669 2484 
Q 3125 2378 3379 2068 
Q 3634 1759 3634 1313 
Q 3634 634 3220 271 
Q 2806 -91 2034 -91 
Q 1263 -91 848 271 
Q 434 634 434 1313 
Q 434 1759 690 2068 
Q 947 2378 1403 2484 
z
M 1172 3481 
Q 1172 3119 1398 2916 
Q 1625 2713 2034 2713 
Q 2441 2713 2670 2916 
Q 2900 3119 2900 3481 
Q 2900 3844 2670 4047 
Q 2441 4250 2034 4250 
Q 1625 4250 1398 4047 
Q 1172 3844 1172 3481 
z
" transform="scale(0.015625)"/>
       </defs>
       <use xlink:href="#DejaVuSans-30"/>
       <use xlink:href="#DejaVuSans-2e" transform="translate(63.623047 0)"/>
       <use xlink:href="#DejaVuSans-38" transform="translate(95.410156 0)"/>
      </g>
     </g>
    </g>
    <g id="ytick_6">
     <g id="line2d_21">
      <path d="M 49.083125 22.318125 
L 406.203125 22.318125 
" clip-path="url(#p61cf842ea3)" style="fill: none; stroke-dasharray: 2.96,1.28; stroke-dashoffset: 0; stroke: #b0b0b0; stroke-opacity: 0.6; stroke-width: 0.8"/>
     </g>
     <g id="line2d_22">
      <g>
       <use xlink:href="#m2ab1874c82" x="49.083125" y="22.318125" style="stroke: #000000; stroke-width: 0.8"/>
      </g>
     </g>
     <g id="text_12">
      <!-- 1.0 -->
      <g transform="translate(26.18 26.117344) scale(0.1 -0.1)">
       <defs>
        <path id="DejaVuSans-31" d="M 794 531 
L 1825 531 
L 1825 4091 
L 703 3866 
L 703 4441 
L 1819 4666 
L 2450 4666 
L 2450 531 
L 3481 531 
L 3481 0 
L 794 0 
L 794 531 
z
" transform="scale(0.015625)"/>
       </defs>
       <use xlink:href="#DejaVuSans-31"/>
       <use xlink:href="#DejaVuSans-2e" transform="translate(63.623047 0)"/>
       <use xlink:href="#DejaVuSans-30" transform="translate(95.410156 0)"/>
      </g>
     </g>
    </g>
    <g id="text_13">
     <!-- $\phi_{\mu,\sigma^{2}}(x)$ -->
     <g transform="translate(17.84 181.064125) rotate(-90) scale(0.14 -0.14)">
      <defs>
       <path id="DejaVuSans-Oblique-3d5" d="M 2991 4863 
L 2738 3572 
Q 3363 3572 3684 3094 
Q 4016 2606 3850 1747 
Q 3681 888 3159 400 
Q 2653 -78 2028 -78 
L 1784 -1331 
L 1213 -1331 
L 1456 -78 
Q 834 -78 509 400 
Q 178 888 347 1747 
Q 513 2606 1034 3094 
Q 1544 3572 2166 3572 
L 2419 4863 
L 2991 4863 
z
M 2128 434 
Q 2481 434 2784 756 
Q 3116 1116 3244 1747 
Q 3369 2372 3169 2738 
Q 2991 3059 2638 3059 
L 2128 434 
z
M 1556 434 
L 2066 3059 
Q 1716 3059 1413 2738 
Q 1072 2372 953 1747 
Q 834 1116 1028 756 
Q 1203 434 1556 434 
z
" transform="scale(0.015625)"/>
       <path id="DejaVuSans-Oblique-3bc" d="M -84 -1331 
L 856 3500 
L 1434 3500 
L 1009 1322 
Q 997 1256 987 1175 
Q 978 1094 978 1013 
Q 978 722 1161 565 
Q 1344 409 1684 409 
Q 2147 409 2431 671 
Q 2716 934 2816 1459 
L 3213 3500 
L 3788 3500 
L 3266 809 
Q 3253 750 3248 706 
Q 3244 663 3244 628 
Q 3244 531 3283 486 
Q 3322 441 3406 441 
Q 3438 441 3492 456 
Q 3547 472 3647 513 
L 3559 50 
Q 3422 -19 3297 -55 
Q 3172 -91 3053 -91 
Q 2847 -91 2730 40 
Q 2613 172 2613 403 
Q 2438 153 2195 31 
Q 1953 -91 1625 -91 
Q 1334 -91 1117 43 
Q 900 178 831 397 
L 494 -1331 
L -84 -1331 
z
" transform="scale(0.015625)"/>
       <path id="DejaVuSans-2c" d="M 750 794 
L 1409 794 
L 1409 256 
L 897 -744 
L 494 -744 
L 750 256 
L 750 794 
z
" transform="scale(0.015625)"/>
       <path id="DejaVuSans-Oblique-3c3" d="M 2219 3044 
Q 1744 3044 1422 2700 
Q 1081 2341 969 1747 
Q 844 1119 1044 756 
Q 1241 397 1706 397 
Q 2166 397 2503 759 
Q 2844 1122 2966 1747 
Q 3075 2319 2881 2700 
Q 2700 3044 2219 3044 
z
M 2309 3503 
L 4219 3500 
L 4106 2925 
L 3463 2925 
Q 3706 2438 3575 1747 
Q 3406 888 2884 400 
Q 2359 -91 1609 -91 
Q 856 -91 525 400 
Q 194 888 363 1747 
Q 528 2609 1050 3097 
Q 1484 3503 2309 3503 
z
" transform="scale(0.015625)"/>
       <path id="DejaVuSans-28" d="M 1984 4856 
Q 1566 4138 1362 3434 
Q 1159 2731 1159 2009 
Q 1159 1288 1364 580 
Q 1569 -128 1984 -844 
L 1484 -844 
Q 1016 -109 783 600 
Q 550 1309 550 2009 
Q 550 2706 781 3412 
Q 1013 4119 1484 4856 
L 1984 4856 
z
" transform="scale(0.015625)"/>
       <path id="DejaVuSans-29" d="M 513 4856 
L 1013 4856 
Q 1481 4119 1714 3412 
Q 1947 2706 1947 2009 
Q 1947 1309 1714 600 
Q 1481 -109 1013 -844 
L 513 -844 
Q 928 -128 1133 580 
Q 1338 1288 1338 2009 
Q 1338 2731 1133 3434 
Q 928 4138 513 4856 
z
" transform="scale(0.015625)"/>
      </defs>
      <use xlink:href="#DejaVuSans-Oblique-3d5" transform="translate(0 0.015625)"/>
      <use xlink:href="#DejaVuSans-Oblique-3bc" transform="translate(65.966797 -16.390625) scale(0.7)"/>
      <use xlink:href="#DejaVuSans-2c" transform="translate(110.50293 -16.390625) scale(0.7)"/>
      <use xlink:href="#DejaVuSans-Oblique-3c3" transform="translate(146.391602 -16.390625) scale(0.7)"/>
      <use xlink:href="#DejaVuSans-32" transform="translate(193.887732 10.40625) scale(0.49)"/>
      <use xlink:href="#DejaVuSans-28" transform="translate(229.711462 0.015625)"/>
      <use xlink:href="#DejaVuSans-Oblique-78" transform="translate(268.725134 0.015625)"/>
      <use xlink:href="#DejaVuSans-29" transform="translate(327.904822 0.015625)"/>
     </g>
    </g>
   </g>
   <g id="line2d_23">
    <path d="M 49.083125 288.430125 
L 164.790005 288.327256 
L 169.789685 288.094346 
L 173.003765 287.748007 
L 175.503605 287.279048 
L 177.646325 286.662392 
L 179.431925 285.937222 
L 181.217525 284.95824 
L 182.646005 283.945308 
L 184.074485 282.683012 
L 185.502965 281.124112 
L 186.931445 279.216368 
L 188.359925 276.903061 
L 189.788405 274.123858 
L 191.216885 270.816061 
L 192.645365 266.916258 
L 194.073845 262.362407 
L 195.502325 257.096315 
L 196.930805 251.066498 
L 198.716405 242.39302 
L 200.502005 232.410745 
L 202.287605 221.110776 
L 204.430325 205.876532 
L 206.573045 189.00074 
L 209.430005 164.533482 
L 216.929525 98.871623 
L 218.715125 85.381051 
L 220.500725 73.632201 
L 221.929205 65.758602 
L 223.000565 60.862443 
L 224.071925 56.902848 
L 225.143285 53.931976 
L 225.857525 52.520757 
L 226.571765 51.57523 
L 227.286005 51.101046 
L 227.643125 51.041707 
L 228.000245 51.101046 
L 228.714485 51.57523 
L 229.428725 52.520757 
L 230.142965 53.931976 
L 230.857205 55.800477 
L 231.928565 59.435691 
L 232.999925 64.026193 
L 234.071285 69.512023 
L 235.499765 78.095925 
L 237.285365 90.592287 
L 239.428085 107.619955 
L 242.285045 132.493809 
L 248.356085 186.049478 
L 250.855925 205.876532 
L 252.998645 221.110776 
L 254.784245 232.410745 
L 256.569845 242.39302 
L 258.355445 251.066498 
L 260.141045 258.48257 
L 261.569525 263.565461 
L 262.998005 267.950148 
L 264.426485 271.696039 
L 265.854965 274.865739 
L 267.283445 277.522657 
L 268.711925 279.72904 
L 270.140405 281.544419 
L 271.568885 283.024459 
L 272.997365 284.220188 
L 274.782965 285.384526 
L 276.568565 286.254213 
L 278.354165 286.894868 
L 280.496885 287.436407 
L 282.996725 287.845364 
L 286.210805 288.14485 
L 290.853365 288.335945 
L 299.424245 288.420376 
L 345.492725 288.430125 
L 405.846005 288.430125 
L 405.846005 288.430125 
" clip-path="url(#p61cf842ea3)" style="fill: none; stroke: #0000ff; stroke-width: 2; stroke-linecap: square"/>
   </g>
   <g id="line2d_24">
    <path d="M 49.083125 288.429729 
L 95.508725 288.317086 
L 107.293685 288.067168 
L 115.150325 287.686539 
L 121.221365 287.178079 
L 126.221045 286.548419 
L 130.506485 285.803293 
L 134.434805 284.908478 
L 138.006005 283.881028 
L 141.577205 282.612287 
L 144.791285 281.232301 
L 148.005365 279.596824 
L 150.862325 277.905384 
L 153.719285 275.97006 
L 156.576245 273.772968 
L 159.433205 271.298456 
L 162.290165 268.533925 
L 165.147125 265.470695 
L 168.004085 262.10487 
L 171.218165 257.959024 
L 174.432245 253.444798 
L 178.003445 248.026127 
L 181.931765 241.635014 
L 186.574325 233.628013 
L 195.145205 218.259573 
L 200.502005 208.896591 
L 204.430325 202.483304 
L 207.644405 197.673748 
L 210.501365 193.818653 
L 213.001205 190.825123 
L 215.143925 188.574166 
L 217.286645 186.638408 
L 219.429365 185.038006 
L 221.214965 183.972787 
L 223.000565 183.160097 
L 224.786165 182.605977 
L 226.571765 182.31456 
L 228.357365 182.288027 
L 230.142965 182.526579 
L 231.928565 183.028428 
L 233.714165 183.789827 
L 235.499765 184.805112 
L 237.285365 186.066775 
L 239.428085 187.892831 
L 241.570805 190.041152 
L 243.713525 192.489574 
L 246.213365 195.692085 
L 249.070325 199.755059 
L 252.284405 204.756088 
L 256.212725 211.339727 
L 261.569525 220.821961 
L 271.568885 238.604533 
L 275.854325 245.750197 
L 279.782645 251.861935 
L 283.353845 256.987051 
L 286.567925 261.216201 
L 289.782005 265.066537 
L 292.638965 268.167486 
L 295.495925 270.968969 
L 298.352885 273.479117 
L 301.209845 275.710085 
L 304.066805 277.67719 
L 306.923765 279.398081 
L 310.137845 281.063728 
L 313.351925 282.470672 
L 316.566005 283.647791 
L 320.137205 284.720508 
L 324.065525 285.656989 
L 328.350965 286.438843 
L 332.993525 287.061607 
L 338.350325 287.560785 
L 345.135605 287.956373 
L 353.706485 288.221135 
L 366.562805 288.375161 
L 394.418165 288.428174 
L 405.846005 288.429709 
L 405.846005 288.429709 
" clip-path="url(#p61cf842ea3)" style="fill: none; stroke: #ff0000; stroke-width: 2; stroke-linecap: square"/>
   </g>
   <g id="line2d_25">
    <path d="M 49.083125 284.532919 
L 58.368245 283.409774 
L 67.296245 282.106771 
L 75.867125 280.631014 
L 84.080885 278.997072 
L 92.294645 277.140888 
L 100.508405 275.061644 
L 109.079285 272.661538 
L 118.007285 269.930143 
L 128.006645 266.631437 
L 140.505845 262.252638 
L 168.718325 252.268091 
L 177.646325 249.402888 
L 185.145845 247.221409 
L 191.931125 245.47054 
L 198.359285 244.039878 
L 204.430325 242.916589 
L 210.144245 242.078804 
L 215.858165 241.466668 
L 221.572085 241.089454 
L 226.928885 240.95434 
L 232.285685 241.032611 
L 237.642485 241.323211 
L 243.356405 241.862769 
L 249.070325 242.631238 
L 254.784245 243.617057 
L 260.855285 244.886218 
L 267.283445 246.45615 
L 274.425845 248.439311 
L 282.282485 250.86148 
L 291.567605 253.968383 
L 304.781045 258.654212 
L 326.565365 266.387683 
L 336.921845 269.816389 
L 346.206965 272.661538 
L 354.777845 275.061644 
L 363.348725 277.226249 
L 371.562485 279.072703 
L 379.776245 280.697103 
L 388.347125 282.163363 
L 397.275125 283.457192 
L 405.846005 284.493791 
L 405.846005 284.493791 
" clip-path="url(#p61cf842ea3)" style="fill: none; stroke: #bfbf00; stroke-width: 2; stroke-linecap: square"/>
   </g>
   <g id="line2d_26">
    <path d="M 49.083125 288.411597 
L 63.367925 288.256081 
L 70.153205 287.979242 
L 75.152885 287.561938 
L 79.081205 287.01679 
L 82.295285 286.361979 
L 85.152245 285.568321 
L 87.652085 284.667367 
L 90.151925 283.531021 
L 92.294645 282.335225 
L 94.437365 280.901952 
L 96.580085 279.198341 
L 98.722805 277.190423 
L 100.865525 274.843955 
L 103.008245 272.125443 
L 105.150965 269.003349 
L 107.293685 265.44948 
L 109.436405 261.440505 
L 111.579125 256.959571 
L 113.721845 251.997949 
L 116.221685 245.603828 
L 118.721525 238.578438 
L 121.578485 229.834951 
L 124.792565 219.219643 
L 129.078005 204.166327 
L 137.291765 175.060632 
L 140.148725 165.814761 
L 142.648565 158.479791 
L 144.791285 152.905639 
L 146.576885 148.848113 
L 148.362485 145.386117 
L 149.790965 143.079005 
L 151.219445 141.206553 
L 152.290805 140.098225 
L 153.362165 139.250319 
L 154.433525 138.667382 
L 155.504885 138.35255 
L 156.576245 138.30752 
L 157.647605 138.532535 
L 158.718965 139.026381 
L 159.790325 139.786401 
L 160.861685 140.808512 
L 161.933045 142.08725 
L 163.361525 144.179487 
L 164.790005 146.696087 
L 166.218485 149.613707 
L 168.004085 153.783692 
L 170.146805 159.476566 
L 172.289525 165.814761 
L 175.146485 175.060632 
L 178.717685 187.477401 
L 189.074165 224.027633 
L 192.288245 234.296673 
L 195.145205 242.668204 
L 197.645045 249.336777 
L 200.144885 255.359272 
L 202.287605 259.999914 
L 204.430325 264.164704 
L 206.573045 267.867968 
L 208.715765 271.131062 
L 210.858485 273.980733 
L 213.001205 276.447564 
L 215.143925 278.564541 
L 217.286645 280.365781 
L 219.429365 281.885446 
L 221.572085 283.156846 
L 224.071925 284.368625 
L 226.571765 285.332448 
L 229.428725 286.184346 
L 232.642805 286.889863 
L 236.214005 287.436154 
L 240.499445 287.8578 
L 245.856245 288.154454 
L 253.712885 288.343082 
L 268.354805 288.422281 
L 356.920565 288.430125 
L 405.846005 288.430125 
L 405.846005 288.430125 
" clip-path="url(#p61cf842ea3)" style="fill: none; stroke: #008000; stroke-width: 2; stroke-linecap: square"/>
   </g>
   <g id="patch_3">
    <path d="M 49.083125 288.430125 
L 49.083125 22.318125 
" style="fill: none; stroke: #000000; stroke-width: 0.8; stroke-linejoin: miter; stroke-linecap: square"/>
   </g>
   <g id="patch_4">
    <path d="M 406.203125 288.430125 
L 406.203125 22.318125 
" style="fill: none; stroke: #000000; stroke-width: 0.8; stroke-linejoin: miter; stroke-linecap: square"/>
   </g>
   <g id="patch_5">
    <path d="M 49.083125 288.430125 
L 406.203125 288.430125 
" style="fill: none; stroke: #000000; stroke-width: 0.8; stroke-linejoin: miter; stroke-linecap: square"/>
   </g>
   <g id="patch_6">
    <path d="M 49.083125 22.318125 
L 406.203125 22.318125 
" style="fill: none; stroke: #000000; stroke-width: 0.8; stroke-linejoin: miter; stroke-linecap: square"/>
   </g>
   <g id="text_14">
    <!-- Gaussian Functions with Different Variable -->
    <g transform="translate(100.442188 16.318125) scale(0.12 -0.12)">
     <defs>
      <path id="DejaVuSans-47" d="M 3809 666 
L 3809 1919 
L 2778 1919 
L 2778 2438 
L 4434 2438 
L 4434 434 
Q 4069 175 3628 42 
Q 3188 -91 2688 -91 
Q 1594 -91 976 548 
Q 359 1188 359 2328 
Q 359 3472 976 4111 
Q 1594 4750 2688 4750 
Q 3144 4750 3555 4637 
Q 3966 4525 4313 4306 
L 4313 3634 
Q 3963 3931 3569 4081 
Q 3175 4231 2741 4231 
Q 1884 4231 1454 3753 
Q 1025 3275 1025 2328 
Q 1025 1384 1454 906 
Q 1884 428 2741 428 
Q 3075 428 3337 486 
Q 3600 544 3809 666 
z
" transform="scale(0.015625)"/>
      <path id="DejaVuSans-61" d="M 2194 1759 
Q 1497 1759 1228 1600 
Q 959 1441 959 1056 
Q 959 750 1161 570 
Q 1363 391 1709 391 
Q 2188 391 2477 730 
Q 2766 1069 2766 1631 
L 2766 1759 
L 2194 1759 
z
M 3341 1997 
L 3341 0 
L 2766 0 
L 2766 531 
Q 2569 213 2275 61 
Q 1981 -91 1556 -91 
Q 1019 -91 701 211 
Q 384 513 384 1019 
Q 384 1609 779 1909 
Q 1175 2209 1959 2209 
L 2766 2209 
L 2766 2266 
Q 2766 2663 2505 2880 
Q 2244 3097 1772 3097 
Q 1472 3097 1187 3025 
Q 903 2953 641 2809 
L 641 3341 
Q 956 3463 1253 3523 
Q 1550 3584 1831 3584 
Q 2591 3584 2966 3190 
Q 3341 2797 3341 1997 
z
" transform="scale(0.015625)"/>
      <path id="DejaVuSans-75" d="M 544 1381 
L 544 3500 
L 1119 3500 
L 1119 1403 
Q 1119 906 1312 657 
Q 1506 409 1894 409 
Q 2359 409 2629 706 
Q 2900 1003 2900 1516 
L 2900 3500 
L 3475 3500 
L 3475 0 
L 2900 0 
L 2900 538 
Q 2691 219 2414 64 
Q 2138 -91 1772 -91 
Q 1169 -91 856 284 
Q 544 659 544 1381 
z
M 1991 3584 
L 1991 3584 
z
" transform="scale(0.015625)"/>
      <path id="DejaVuSans-73" d="M 2834 3397 
L 2834 2853 
Q 2591 2978 2328 3040 
Q 2066 3103 1784 3103 
Q 1356 3103 1142 2972 
Q 928 2841 928 2578 
Q 928 2378 1081 2264 
Q 1234 2150 1697 2047 
L 1894 2003 
Q 2506 1872 2764 1633 
Q 3022 1394 3022 966 
Q 3022 478 2636 193 
Q 2250 -91 1575 -91 
Q 1294 -91 989 -36 
Q 684 19 347 128 
L 347 722 
Q 666 556 975 473 
Q 1284 391 1588 391 
Q 1994 391 2212 530 
Q 2431 669 2431 922 
Q 2431 1156 2273 1281 
Q 2116 1406 1581 1522 
L 1381 1569 
Q 847 1681 609 1914 
Q 372 2147 372 2553 
Q 372 3047 722 3315 
Q 1072 3584 1716 3584 
Q 2034 3584 2315 3537 
Q 2597 3491 2834 3397 
z
" transform="scale(0.015625)"/>
      <path id="DejaVuSans-69" d="M 603 3500 
L 1178 3500 
L 1178 0 
L 603 0 
L 603 3500 
z
M 603 4863 
L 1178 4863 
L 1178 4134 
L 603 4134 
L 603 4863 
z
" transform="scale(0.015625)"/>
      <path id="DejaVuSans-6e" d="M 3513 2113 
L 3513 0 
L 2938 0 
L 2938 2094 
Q 2938 2591 2744 2837 
Q 2550 3084 2163 3084 
Q 1697 3084 1428 2787 
Q 1159 2491 1159 1978 
L 1159 0 
L 581 0 
L 581 3500 
L 1159 3500 
L 1159 2956 
Q 1366 3272 1645 3428 
Q 1925 3584 2291 3584 
Q 2894 3584 3203 3211 
Q 3513 2838 3513 2113 
z
" transform="scale(0.015625)"/>
      <path id="DejaVuSans-20" transform="scale(0.015625)"/>
      <path id="DejaVuSans-46" d="M 628 4666 
L 3309 4666 
L 3309 4134 
L 1259 4134 
L 1259 2759 
L 3109 2759 
L 3109 2228 
L 1259 2228 
L 1259 0 
L 628 0 
L 628 4666 
z
" transform="scale(0.015625)"/>
      <path id="DejaVuSans-63" d="M 3122 3366 
L 3122 2828 
Q 2878 2963 2633 3030 
Q 2388 3097 2138 3097 
Q 1578 3097 1268 2742 
Q 959 2388 959 1747 
Q 959 1106 1268 751 
Q 1578 397 2138 397 
Q 2388 397 2633 464 
Q 2878 531 3122 666 
L 3122 134 
Q 2881 22 2623 -34 
Q 2366 -91 2075 -91 
Q 1284 -91 818 406 
Q 353 903 353 1747 
Q 353 2603 823 3093 
Q 1294 3584 2113 3584 
Q 2378 3584 2631 3529 
Q 2884 3475 3122 3366 
z
" transform="scale(0.015625)"/>
      <path id="DejaVuSans-74" d="M 1172 4494 
L 1172 3500 
L 2356 3500 
L 2356 3053 
L 1172 3053 
L 1172 1153 
Q 1172 725 1289 603 
Q 1406 481 1766 481 
L 2356 481 
L 2356 0 
L 1766 0 
Q 1100 0 847 248 
Q 594 497 594 1153 
L 594 3053 
L 172 3053 
L 172 3500 
L 594 3500 
L 594 4494 
L 1172 4494 
z
" transform="scale(0.015625)"/>
      <path id="DejaVuSans-6f" d="M 1959 3097 
Q 1497 3097 1228 2736 
Q 959 2375 959 1747 
Q 959 1119 1226 758 
Q 1494 397 1959 397 
Q 2419 397 2687 759 
Q 2956 1122 2956 1747 
Q 2956 2369 2687 2733 
Q 2419 3097 1959 3097 
z
M 1959 3584 
Q 2709 3584 3137 3096 
Q 3566 2609 3566 1747 
Q 3566 888 3137 398 
Q 2709 -91 1959 -91 
Q 1206 -91 779 398 
Q 353 888 353 1747 
Q 353 2609 779 3096 
Q 1206 3584 1959 3584 
z
" transform="scale(0.015625)"/>
      <path id="DejaVuSans-77" d="M 269 3500 
L 844 3500 
L 1563 769 
L 2278 3500 
L 2956 3500 
L 3675 769 
L 4391 3500 
L 4966 3500 
L 4050 0 
L 3372 0 
L 2619 2869 
L 1863 0 
L 1184 0 
L 269 3500 
z
" transform="scale(0.015625)"/>
      <path id="DejaVuSans-68" d="M 3513 2113 
L 3513 0 
L 2938 0 
L 2938 2094 
Q 2938 2591 2744 2837 
Q 2550 3084 2163 3084 
Q 1697 3084 1428 2787 
Q 1159 2491 1159 1978 
L 1159 0 
L 581 0 
L 581 4863 
L 1159 4863 
L 1159 2956 
Q 1366 3272 1645 3428 
Q 1925 3584 2291 3584 
Q 2894 3584 3203 3211 
Q 3513 2838 3513 2113 
z
" transform="scale(0.015625)"/>
      <path id="DejaVuSans-44" d="M 1259 4147 
L 1259 519 
L 2022 519 
Q 2988 519 3436 956 
Q 3884 1394 3884 2338 
Q 3884 3275 3436 3711 
Q 2988 4147 2022 4147 
L 1259 4147 
z
M 628 4666 
L 1925 4666 
Q 3281 4666 3915 4102 
Q 4550 3538 4550 2338 
Q 4550 1131 3912 565 
Q 3275 0 1925 0 
L 628 0 
L 628 4666 
z
" transform="scale(0.015625)"/>
      <path id="DejaVuSans-66" d="M 2375 4863 
L 2375 4384 
L 1825 4384 
Q 1516 4384 1395 4259 
Q 1275 4134 1275 3809 
L 1275 3500 
L 2222 3500 
L 2222 3053 
L 1275 3053 
L 1275 0 
L 697 0 
L 697 3053 
L 147 3053 
L 147 3500 
L 697 3500 
L 697 3744 
Q 697 4328 969 4595 
Q 1241 4863 1831 4863 
L 2375 4863 
z
" transform="scale(0.015625)"/>
      <path id="DejaVuSans-65" d="M 3597 1894 
L 3597 1613 
L 953 1613 
Q 991 1019 1311 708 
Q 1631 397 2203 397 
Q 2534 397 2845 478 
Q 3156 559 3463 722 
L 3463 178 
Q 3153 47 2828 -22 
Q 2503 -91 2169 -91 
Q 1331 -91 842 396 
Q 353 884 353 1716 
Q 353 2575 817 3079 
Q 1281 3584 2069 3584 
Q 2775 3584 3186 3129 
Q 3597 2675 3597 1894 
z
M 3022 2063 
Q 3016 2534 2758 2815 
Q 2500 3097 2075 3097 
Q 1594 3097 1305 2825 
Q 1016 2553 972 2059 
L 3022 2063 
z
" transform="scale(0.015625)"/>
      <path id="DejaVuSans-72" d="M 2631 2963 
Q 2534 3019 2420 3045 
Q 2306 3072 2169 3072 
Q 1681 3072 1420 2755 
Q 1159 2438 1159 1844 
L 1159 0 
L 581 0 
L 581 3500 
L 1159 3500 
L 1159 2956 
Q 1341 3275 1631 3429 
Q 1922 3584 2338 3584 
Q 2397 3584 2469 3576 
Q 2541 3569 2628 3553 
L 2631 2963 
z
" transform="scale(0.015625)"/>
      <path id="DejaVuSans-56" d="M 1831 0 
L 50 4666 
L 709 4666 
L 2188 738 
L 3669 4666 
L 4325 4666 
L 2547 0 
L 1831 0 
z
" transform="scale(0.015625)"/>
      <path id="DejaVuSans-62" d="M 3116 1747 
Q 3116 2381 2855 2742 
Q 2594 3103 2138 3103 
Q 1681 3103 1420 2742 
Q 1159 2381 1159 1747 
Q 1159 1113 1420 752 
Q 1681 391 2138 391 
Q 2594 391 2855 752 
Q 3116 1113 3116 1747 
z
M 1159 2969 
Q 1341 3281 1617 3432 
Q 1894 3584 2278 3584 
Q 2916 3584 3314 3078 
Q 3713 2572 3713 1747 
Q 3713 922 3314 415 
Q 2916 -91 2278 -91 
Q 1894 -91 1617 61 
Q 1341 213 1159 525 
L 1159 0 
L 581 0 
L 581 4863 
L 1159 4863 
L 1159 2969 
z
" transform="scale(0.015625)"/>
      <path id="DejaVuSans-6c" d="M 603 4863 
L 1178 4863 
L 1178 0 
L 603 0 
L 603 4863 
z
" transform="scale(0.015625)"/>
     </defs>
     <use xlink:href="#DejaVuSans-47"/>
     <use xlink:href="#DejaVuSans-61" transform="translate(77.490234 0)"/>
     <use xlink:href="#DejaVuSans-75" transform="translate(138.769531 0)"/>
     <use xlink:href="#DejaVuSans-73" transform="translate(202.148438 0)"/>
     <use xlink:href="#DejaVuSans-73" transform="translate(254.248047 0)"/>
     <use xlink:href="#DejaVuSans-69" transform="translate(306.347656 0)"/>
     <use xlink:href="#DejaVuSans-61" transform="translate(334.130859 0)"/>
     <use xlink:href="#DejaVuSans-6e" transform="translate(395.410156 0)"/>
     <use xlink:href="#DejaVuSans-20" transform="translate(458.789062 0)"/>
     <use xlink:href="#DejaVuSans-46" transform="translate(490.576172 0)"/>
     <use xlink:href="#DejaVuSans-75" transform="translate(542.595703 0)"/>
     <use xlink:href="#DejaVuSans-6e" transform="translate(605.974609 0)"/>
     <use xlink:href="#DejaVuSans-63" transform="translate(669.353516 0)"/>
     <use xlink:href="#DejaVuSans-74" transform="translate(724.333984 0)"/>
     <use xlink:href="#DejaVuSans-69" transform="translate(763.542969 0)"/>
     <use xlink:href="#DejaVuSans-6f" transform="translate(791.326172 0)"/>
     <use xlink:href="#DejaVuSans-6e" transform="translate(852.507812 0)"/>
     <use xlink:href="#DejaVuSans-73" transform="translate(915.886719 0)"/>
     <use xlink:href="#DejaVuSans-20" transform="translate(967.986328 0)"/>
     <use xlink:href="#DejaVuSans-77" transform="translate(999.773438 0)"/>
     <use xlink:href="#DejaVuSans-69" transform="translate(1081.560547 0)"/>
     <use xlink:href="#DejaVuSans-74" transform="translate(1109.34375 0)"/>
     <use xlink:href="#DejaVuSans-68" transform="translate(1148.552734 0)"/>
     <use xlink:href="#DejaVuSans-20" transform="translate(1211.931641 0)"/>
     <use xlink:href="#DejaVuSans-44" transform="translate(1243.71875 0)"/>
     <use xlink:href="#DejaVuSans-69" transform="translate(1320.720703 0)"/>
     <use xlink:href="#DejaVuSans-66" transform="translate(1348.503906 0)"/>
     <use xlink:href="#DejaVuSans-66" transform="translate(1383.708984 0)"/>
     <use xlink:href="#DejaVuSans-65" transform="translate(1418.914062 0)"/>
     <use xlink:href="#DejaVuSans-72" transform="translate(1480.4375 0)"/>
     <use xlink:href="#DejaVuSans-65" transform="translate(1519.300781 0)"/>
     <use xlink:href="#DejaVuSans-6e" transform="translate(1580.824219 0)"/>
     <use xlink:href="#DejaVuSans-74" transform="translate(1644.203125 0)"/>
     <use xlink:href="#DejaVuSans-20" transform="translate(1683.412109 0)"/>
     <use xlink:href="#DejaVuSans-56" transform="translate(1715.199219 0)"/>
     <use xlink:href="#DejaVuSans-61" transform="translate(1775.857422 0)"/>
     <use xlink:href="#DejaVuSans-72" transform="translate(1837.136719 0)"/>
     <use xlink:href="#DejaVuSans-69" transform="translate(1878.25 0)"/>
     <use xlink:href="#DejaVuSans-61" transform="translate(1906.033203 0)"/>
     <use xlink:href="#DejaVuSans-62" transform="translate(1967.3125 0)"/>
     <use xlink:href="#DejaVuSans-6c" transform="translate(2030.789062 0)"/>
     <use xlink:href="#DejaVuSans-65" transform="translate(2058.572266 0)"/>
    </g>
   </g>
   <g id="legend_1">
    <g id="patch_7">
     <path d="M 289.003125 95.118125 
L 399.203125 95.118125 
Q 401.203125 95.118125 401.203125 93.118125 
L 401.203125 29.318125 
Q 401.203125 27.318125 399.203125 27.318125 
L 289.003125 27.318125 
Q 287.003125 27.318125 287.003125 29.318125 
L 287.003125 93.118125 
Q 287.003125 95.118125 289.003125 95.118125 
z
" style="fill: #ffffff; opacity: 0.8; stroke: #cccccc; stroke-linejoin: miter"/>
    </g>
    <g id="line2d_27">
     <path d="M 291.003125 36.918125 
L 301.003125 36.918125 
L 311.003125 36.918125 
" style="fill: none; stroke: #0000ff; stroke-width: 2; stroke-linecap: square"/>
    </g>
    <g id="text_15">
     <!-- $\sigma^2=0.2, \mu=0$ -->
     <g transform="translate(319.003125 40.418125) scale(0.1 -0.1)">
      <defs>
       <path id="DejaVuSans-3d" d="M 678 2906 
L 4684 2906 
L 4684 2381 
L 678 2381 
L 678 2906 
z
M 678 1631 
L 4684 1631 
L 4684 1100 
L 678 1100 
L 678 1631 
z
" transform="scale(0.015625)"/>
      </defs>
      <use xlink:href="#DejaVuSans-Oblique-3c3" transform="translate(0 0.765625)"/>
      <use xlink:href="#DejaVuSans-32" transform="translate(67.851615 39.046875) scale(0.7)"/>
      <use xlink:href="#DejaVuSans-3d" transform="translate(134.604544 0.765625)"/>
      <use xlink:href="#DejaVuSans-30" transform="translate(237.876029 0.765625)"/>
      <use xlink:href="#DejaVuSans-2e" transform="translate(301.499076 0.765625)"/>
      <use xlink:href="#DejaVuSans-32" transform="translate(327.786185 0.765625)"/>
      <use xlink:href="#DejaVuSans-2c" transform="translate(391.409232 0.765625)"/>
      <use xlink:href="#DejaVuSans-Oblique-3bc" transform="translate(442.678763 0.765625)"/>
      <use xlink:href="#DejaVuSans-3d" transform="translate(525.784232 0.765625)"/>
      <use xlink:href="#DejaVuSans-30" transform="translate(629.055716 0.765625)"/>
     </g>
    </g>
    <g id="line2d_28">
     <path d="M 291.003125 53.118125 
L 301.003125 53.118125 
L 311.003125 53.118125 
" style="fill: none; stroke: #ff0000; stroke-width: 2; stroke-linecap: square"/>
    </g>
    <g id="text_16">
     <!-- $\sigma^2=1, \mu=0$ -->
     <g transform="translate(319.003125 56.618125) scale(0.1 -0.1)">
      <use xlink:href="#DejaVuSans-Oblique-3c3" transform="translate(0 0.765625)"/>
      <use xlink:href="#DejaVuSans-32" transform="translate(67.851615 39.046875) scale(0.7)"/>
      <use xlink:href="#DejaVuSans-3d" transform="translate(134.604544 0.765625)"/>
      <use xlink:href="#DejaVuSans-31" transform="translate(237.876029 0.765625)"/>
      <use xlink:href="#DejaVuSans-2c" transform="translate(301.499076 0.765625)"/>
      <use xlink:href="#DejaVuSans-Oblique-3bc" transform="translate(352.768607 0.765625)"/>
      <use xlink:href="#DejaVuSans-3d" transform="translate(435.874076 0.765625)"/>
      <use xlink:href="#DejaVuSans-30" transform="translate(539.14556 0.765625)"/>
     </g>
    </g>
    <g id="line2d_29">
     <path d="M 291.003125 69.318125 
L 301.003125 69.318125 
L 311.003125 69.318125 
" style="fill: none; stroke: #bfbf00; stroke-width: 2; stroke-linecap: square"/>
    </g>
    <g id="text_17">
     <!-- $\sigma^2=5, \mu=0$ -->
     <g transform="translate(319.003125 72.818125) scale(0.1 -0.1)">
      <defs>
       <path id="DejaVuSans-35" d="M 691 4666 
L 3169 4666 
L 3169 4134 
L 1269 4134 
L 1269 2991 
Q 1406 3038 1543 3061 
Q 1681 3084 1819 3084 
Q 2600 3084 3056 2656 
Q 3513 2228 3513 1497 
Q 3513 744 3044 326 
Q 2575 -91 1722 -91 
Q 1428 -91 1123 -41 
Q 819 9 494 109 
L 494 744 
Q 775 591 1075 516 
Q 1375 441 1709 441 
Q 2250 441 2565 725 
Q 2881 1009 2881 1497 
Q 2881 1984 2565 2268 
Q 2250 2553 1709 2553 
Q 1456 2553 1204 2497 
Q 953 2441 691 2322 
L 691 4666 
z
" transform="scale(0.015625)"/>
      </defs>
      <use xlink:href="#DejaVuSans-Oblique-3c3" transform="translate(0 0.765625)"/>
      <use xlink:href="#DejaVuSans-32" transform="translate(67.851615 39.046875) scale(0.7)"/>
      <use xlink:href="#DejaVuSans-3d" transform="translate(134.604544 0.765625)"/>
      <use xlink:href="#DejaVuSans-35" transform="translate(237.876029 0.765625)"/>
      <use xlink:href="#DejaVuSans-2c" transform="translate(301.499076 0.765625)"/>
      <use xlink:href="#DejaVuSans-Oblique-3bc" transform="translate(352.768607 0.765625)"/>
      <use xlink:href="#DejaVuSans-3d" transform="translate(435.874076 0.765625)"/>
      <use xlink:href="#DejaVuSans-30" transform="translate(539.14556 0.765625)"/>
     </g>
    </g>
    <g id="line2d_30">
     <path d="M 291.003125 85.518125 
L 301.003125 85.518125 
L 311.003125 85.518125 
" style="fill: none; stroke: #008000; stroke-width: 2; stroke-linecap: square"/>
    </g>
    <g id="text_18">
     <!-- $\sigma^2=0.5, \mu=-2$ -->
     <g transform="translate(319.003125 89.018125) scale(0.1 -0.1)">
      <use xlink:href="#DejaVuSans-Oblique-3c3" transform="translate(0 0.765625)"/>
      <use xlink:href="#DejaVuSans-32" transform="translate(67.851615 39.046875) scale(0.7)"/>
      <use xlink:href="#DejaVuSans-3d" transform="translate(134.604544 0.765625)"/>
      <use xlink:href="#DejaVuSans-30" transform="translate(237.876029 0.765625)"/>
      <use xlink:href="#DejaVuSans-2e" transform="translate(301.499076 0.765625)"/>
      <use xlink:href="#DejaVuSans-35" transform="translate(333.286185 0.765625)"/>
      <use xlink:href="#DejaVuSans-2c" transform="translate(396.909232 0.765625)"/>
      <use xlink:href="#DejaVuSans-Oblique-3bc" transform="translate(448.178763 0.765625)"/>
      <use xlink:href="#DejaVuSans-3d" transform="translate(531.284232 0.765625)"/>
      <use xlink:href="#DejaVuSans-2212" transform="translate(634.555716 0.765625)"/>
      <use xlink:href="#DejaVuSans-32" transform="translate(718.344779 0.765625)"/>
     </g>
    </g>
   </g>
  </g>
 </g>
 <defs>
  <clipPath id="p61cf842ea3">
   <rect x="49.083125" y="22.318125" width="357.12" height="266.112"/>
  </clipPath>
 </defs>
</svg>
